<?xml version="1.0" standalone="no"?>
<!DOCTYPE svg PUBLIC "-//W3C//DTD SVG 20010904//EN"
 "http://www.w3.org/TR/2001/REC-SVG-20010904/DTD/svg10.dtd">
<svg version="1.0" xmlns="http://www.w3.org/2000/svg"
 width="615.000000pt" height="615.000000pt" viewBox="0 0 615.000000 615.000000"
 preserveAspectRatio="xMidYMid meet">
<metadata>
Created by potrace 1.11, written by Peter Selinger 2001-2013
</metadata>
<g transform="translate(0.000000,615.000000) scale(0.100000,-0.100000)"
fill="#000000" stroke="none">
<path d="M2340 6037 c0 -7 9 -29 20 -50 29 -54 26 -110 -9 -160 -16 -24 -35
-62 -42 -86 -8 -28 -25 -52 -47 -69 -20 -15 -44 -50 -61 -87 -16 -36 -41 -71
-60 -85 -86 -66 -104 -98 -116 -210 -3 -30 -7 -68 -9 -85 -7 -68 -46 -113
-188 -213 -81 -58 -178 -153 -178 -174 0 -5 8 -8 18 -6 9 1 23 -1 31 -6 10 -7
12 -6 6 4 -6 10 -3 12 13 8 12 -4 20 -2 17 2 -3 5 4 14 15 20 11 6 20 7 20 3
0 -4 4 -3 8 4 4 6 16 13 27 15 27 4 26 -34 -3 -103 -22 -55 -35 -164 -21 -190
10 -20 47 -31 56 -17 3 6 1 8 -5 4 -6 -3 -13 -2 -17 3 -7 12 29 33 40 23 5 -4
5 -1 1 6 -4 7 -11 10 -16 7 -4 -3 0 13 11 34 10 22 23 43 29 46 6 4 8 10 5 15
-3 5 0 12 5 15 6 4 15 18 21 32 5 14 14 21 21 17 7 -5 8 -3 3 6 -5 8 -1 18 10
27 11 7 15 13 9 13 -5 0 40 47 100 105 60 57 113 102 119 98 6 -3 7 -1 3 6 -7
11 31 69 41 63 2 -2 8 0 11 4 4 4 2 4 -5 0 -8 -4 -11 1 -10 14 1 11 4 20 7 20
4 0 7 6 7 13 1 6 2 31 4 55 1 23 7 42 13 42 6 0 4 5 -4 10 -13 9 -13 11 0 20
8 5 10 10 4 10 -6 0 -11 7 -11 15 0 8 5 15 10 15 6 0 7 3 4 7 -4 3 -1 13 6 21
8 11 8 13 0 9 -7 -5 -9 0 -6 14 3 11 12 23 19 26 8 3 11 10 7 16 -4 6 2 8 17
4 16 -4 20 -3 12 5 -13 13 76 111 95 104 7 -3 10 1 6 11 -3 8 0 19 8 24 19 12
25 11 27 -3 7 -85 37 -270 53 -333 45 -180 44 -221 -11 -315 -29 -49 -63 -104
-106 -175 -27 -44 -55 -91 -62 -105 -7 -14 -21 -38 -32 -55 -10 -16 -27 -45
-36 -63 -9 -18 -56 -72 -105 -120 -86 -86 -120 -142 -85 -142 9 0 16 4 16 10
0 5 8 14 18 19 17 9 18 3 18 -87 1 -113 7 -159 29 -227 22 -69 35 -96 61 -125
62 -70 79 -155 31 -148 -12 2 -21 9 -19 16 1 8 -2 11 -8 7 -5 -3 -10 -1 -10 5
0 6 -4 9 -9 6 -4 -3 -35 24 -67 60 -32 37 -65 72 -71 79 -7 8 -13 19 -13 25 0
6 -4 8 -10 5 -5 -3 -10 0 -10 8 0 8 -7 20 -15 27 -8 7 -13 16 -10 20 3 4 -2
10 -10 13 -14 6 -79 127 -68 127 3 0 1 6 -4 13 -15 19 -24 49 -13 42 6 -4 2 9
-9 28 -18 32 -18 36 -3 52 10 10 11 15 5 11 -20 -11 -36 3 -22 20 9 11 9 14
-1 14 -8 0 -11 10 -8 29 3 18 0 28 -6 24 -5 -4 -7 1 -3 11 4 10 7 20 7 22 0 3
6 2 13 -2 9 -6 9 -4 -1 8 -13 16 -8 77 6 88 4 3 8 12 10 20 2 8 14 29 28 47
15 20 20 34 13 38 -12 8 -29 -11 -69 -80 -16 -28 -43 -58 -59 -68 -17 -10 -37
-24 -44 -32 -8 -8 -30 -24 -48 -37 -19 -13 -49 -34 -67 -48 -17 -13 -39 -25
-46 -26 -28 -4 -58 53 -59 111 -1 11 -4 22 -9 25 -4 4 -9 22 -10 42 -2 20 -6
34 -9 32 -9 -5 -21 64 -14 76 4 6 1 9 -7 8 -9 -2 -13 8 -13 29 0 17 -3 29 -7
27 -8 -5 -10 0 -12 29 -1 6 -5 15 -10 19 -6 4 -4 14 5 24 8 10 9 15 3 11 -7
-4 -14 -1 -17 6 -6 17 -3 32 6 29 5 -1 6 2 2 8 -3 6 -10 8 -15 5 -4 -3 -10 2
-14 10 -3 8 -1 15 4 15 6 0 10 4 10 10 0 5 -5 9 -11 7 -6 -1 -13 5 -14 13 -6
33 -10 45 -17 50 -4 3 -8 17 -10 30 -2 14 -16 50 -30 80 l-26 55 -1 -77 c-1
-73 -4 -84 -65 -211 -35 -73 -66 -142 -69 -153 -9 -27 -20 -88 -31 -174 -3
-25 -9 -56 -12 -70 -3 -14 -7 -56 -10 -95 -12 -187 -17 -229 -35 -279 -14 -39
-3 -62 15 -32 6 11 18 27 27 36 8 9 13 23 10 31 -4 12 -1 12 15 -1 17 -14 18
-14 6 2 -13 17 -8 63 6 54 4 -2 8 10 9 27 6 78 15 117 27 110 7 -4 7 -2 -1 8
-10 12 -10 18 -1 27 7 7 8 12 4 12 -5 0 -2 8 5 17 8 9 9 14 4 11 -7 -4 -9 6
-7 28 3 23 10 34 21 35 9 0 11 3 4 5 -13 6 -7 62 9 81 5 7 7 17 3 23 -3 5 0
13 9 16 9 3 12 12 9 21 -5 12 -3 14 8 8 12 -8 12 -6 0 8 -9 11 -10 17 -2 17 6
0 10 3 10 8 -1 4 0 10 1 15 4 13 7 27 9 38 1 8 7 7 19 -2 15 -13 16 -12 3 4
-10 13 -11 20 -2 30 6 8 7 17 3 22 -4 4 4 4 18 1 17 -5 21 -4 11 2 -17 12 -9
37 19 52 17 9 22 7 32 -17 11 -30 19 -173 9 -173 -3 0 -6 -26 -7 -58 0 -52 -7
-130 -20 -223 -5 -40 -12 -107 -19 -184 -2 -27 -7 -70 -10 -95 -3 -25 -7 -70
-10 -100 -3 -30 -8 -77 -11 -105 -3 -27 -7 -70 -9 -95 -3 -25 -7 -67 -11 -95
-3 -27 -7 -70 -9 -95 -3 -41 -6 -67 -20 -200 -3 -25 -7 -70 -10 -100 -4 -51
-7 -77 -21 -220 -3 -30 -7 -68 -9 -85 -2 -16 -6 -64 -10 -105 -3 -41 -11 -78
-18 -82 -11 -6 -43 12 -82 49 -11 10 -36 30 -55 43 -33 23 -43 31 -90 70 -10
8 -34 28 -54 44 -20 15 -33 32 -30 37 3 5 -1 6 -9 3 -9 -3 -22 4 -31 18 -9 12
-16 19 -16 14 0 -5 -9 1 -20 14 -11 13 -20 19 -20 14 0 -5 -4 -4 -8 1 -7 11
-66 45 -76 45 -3 0 -6 -7 -6 -16 0 -15 121 -144 135 -144 7 0 32 -22 101 -87
19 -18 39 -33 45 -33 5 0 7 -4 4 -10 -3 -5 0 -10 9 -10 8 0 16 -3 18 -7 2 -5
28 -28 58 -53 30 -25 58 -49 61 -53 14 -20 -6 -49 -65 -92 -104 -76 -126 -96
-126 -117 0 -10 4 -16 10 -13 6 4 10 -14 11 -44 3 -107 4 -121 12 -121 4 0 7
-7 7 -16 0 -22 60 -135 82 -155 10 -9 18 -22 18 -29 0 -7 3 -11 6 -8 3 3 17
-5 32 -19 15 -13 34 -31 43 -39 9 -8 21 -14 27 -14 7 0 12 -4 12 -9 0 -5 14
-14 30 -21 17 -7 30 -16 30 -20 0 -3 7 -7 15 -8 8 -1 22 -3 30 -4 8 -1 15 -5
15 -10 0 -5 5 -6 10 -3 6 3 10 2 10 -4 0 -6 8 -7 17 -4 13 5 15 3 9 -13 -5
-15 -4 -16 5 -7 8 8 19 9 38 1 14 -5 55 -13 91 -17 45 -5 64 -11 62 -20 -1 -7
2 -10 8 -6 6 3 8 11 5 16 -4 5 17 9 47 10 29 0 61 2 72 4 38 7 47 -4 29 -38
-24 -46 -25 -51 -27 -166 l-1 -104 -30 -4 c-71 -9 -151 -47 -202 -97 -12 -12
-40 -57 -64 -100 -35 -65 -39 -77 -23 -74 11 2 27 13 37 25 16 20 24 22 81 14
5 0 3 -7 -3 -14 -6 -8 -8 -16 -5 -19 11 -12 -59 -58 -88 -58 -34 0 -98 27 -98
42 0 5 -4 7 -9 3 -5 -3 -16 3 -23 12 -8 10 -28 31 -46 47 -31 29 -32 29 -47
10 -8 -10 -15 -26 -15 -35 0 -30 -74 -94 -124 -108 -31 -8 -36 -7 -37 7 0 11
-2 12 -6 5 -2 -7 -11 -13 -19 -13 -12 0 -12 4 2 25 16 24 16 27 -2 40 -10 8
-28 12 -39 10 -11 -2 -23 -4 -27 -4 -14 -2 -35 -56 -37 -94 -2 -41 26 -100 45
-93 6 2 17 -1 23 -7 8 -8 14 -8 19 -2 9 13 75 13 84 0 5 -6 8 -4 8 4 0 11 4
10 16 -5 8 -10 12 -13 8 -5 -5 11 -3 13 9 8 10 -3 17 -3 17 1 0 4 18 7 40 7
22 0 40 -3 40 -7 0 -4 7 -5 15 -2 9 4 15 0 16 -7 0 -8 4 -6 8 5 7 17 8 17 24
2 15 -15 17 -16 17 -2 0 22 17 20 23 -1 4 -16 5 -15 6 1 1 20 1 20 17 0 8 -10
12 -13 8 -5 -5 11 -3 13 9 8 10 -3 17 -3 17 1 0 12 110 1 111 -11 0 -7 4 -4 8
7 7 17 8 17 24 2 16 -16 17 -16 17 -1 0 12 5 15 16 11 9 -3 25 -6 35 -6 13 0
18 -5 14 -12 -4 -7 1 -4 9 6 12 15 16 16 16 5 0 -8 3 -10 8 -4 8 12 62 14 62
3 0 -4 7 -5 15 -2 9 4 15 0 16 -7 0 -8 4 -6 8 5 7 17 8 17 24 2 16 -16 17 -16
17 -1 0 12 5 15 16 11 9 -3 25 -6 35 -6 13 0 18 -5 14 -13 -4 -6 -1 -5 7 3 16
18 118 16 119 -3 0 -7 4 -4 8 7 7 17 8 17 24 2 10 -10 17 -13 17 -6 0 8 18 11
55 8 30 -1 55 0 55 3 0 14 30 4 31 -10 0 -12 3 -11 9 4 5 11 9 14 9 7 1 -7 6
-10 12 -6 6 3 15 0 20 -7 7 -11 9 -10 9 4 0 11 5 15 11 11 6 -3 56 -6 112 -5
72 1 103 -2 108 -11 7 -10 9 -9 9 4 0 11 5 15 15 12 26 -10 135 -9 135 1 0 6
4 4 9 -4 7 -11 9 -11 14 0 4 9 6 7 7 -6 l1 -20 9 20 c5 11 9 15 9 8 1 -7 8
-10 16 -7 9 4 15 0 15 -7 1 -9 4 -8 11 4 6 9 15 15 21 11 5 -4 55 -6 109 -5
75 2 99 -1 99 -11 0 -8 5 -6 11 5 6 9 15 14 21 11 7 -4 34 -6 61 -5 28 1 55
-3 65 -11 12 -10 14 -10 8 -1 -5 10 3 12 33 11 23 -1 41 -6 41 -12 0 -6 5 -3
11 7 6 9 15 14 22 10 6 -3 31 -5 55 -4 29 1 48 -3 53 -11 7 -10 9 -10 9 2 0
12 10 14 45 12 25 -2 45 -9 45 -16 0 -6 4 -5 9 3 8 13 99 16 219 7 17 -1 32 0
32 4 0 3 29 3 65 0 37 -3 70 -1 75 4 7 7 10 6 10 0 0 -6 16 -8 35 -6 20 2 42
-1 51 -9 12 -10 15 -10 12 2 -2 8 2 13 8 12 6 -1 56 -3 110 -4 55 -1 105 -6
112 -12 10 -8 12 -7 10 3 -2 10 10 13 52 11 30 -2 57 -5 59 -7 2 -2 10 1 18 7
7 6 13 8 13 3 0 -5 23 -9 50 -9 28 0 50 2 50 6 0 3 12 4 28 2 81 -9 212 -8
212 2 0 6 3 7 8 0 4 -6 55 -10 117 -10 62 0 113 4 117 10 5 7 8 6 8 0 0 -6 21
-9 51 -8 45 3 51 1 45 -14 -4 -13 -1 -12 10 4 12 16 21 20 42 14 15 -3 41 -6
57 -5 17 1 33 -4 37 -10 5 -8 8 -7 8 2 0 15 61 13 72 -3 5 -7 8 -6 8 2 0 7 17
11 45 11 32 0 43 -3 38 -11 -4 -7 1 -6 10 2 9 7 30 11 46 9 17 -2 27 0 24 5
-3 5 4 6 16 2 11 -3 21 -2 21 3 0 5 11 15 25 22 14 7 25 20 25 27 0 8 4 12 9
8 5 -3 13 0 17 6 5 8 3 9 -6 4 -10 -6 -11 -2 -6 16 4 13 8 29 9 34 2 6 6 16
10 23 5 6 4 12 0 12 -5 0 -8 20 -8 45 1 25 -3 45 -7 45 -4 0 -8 6 -8 13 0 7
-9 19 -20 27 -11 8 -20 19 -20 25 0 5 -25 23 -54 39 -126 68 -261 14 -234 -92
5 -20 10 -42 10 -49 1 -7 8 -15 15 -17 8 -3 11 -11 7 -17 -4 -7 -3 -9 3 -6 5
3 26 2 46 -3 25 -5 35 -5 30 3 -4 7 0 8 13 3 10 -4 15 -4 12 0 -4 3 2 15 12
26 23 25 30 52 19 69 -6 10 -11 11 -16 3 -5 -6 -18 -16 -31 -23 -18 -10 -25
-9 -38 4 -14 13 -14 15 3 16 10 0 13 3 6 6 -7 2 -13 9 -13 15 0 6 7 7 16 4 9
-4 13 -2 8 5 -14 24 80 -3 109 -31 26 -24 29 -32 23 -63 -4 -19 -12 -39 -19
-45 -16 -13 -87 -32 -87 -23 0 4 -13 6 -30 5 -16 -1 -30 1 -30 4 0 4 -16 7
-35 8 -19 0 -45 5 -57 11 -77 35 -104 47 -108 48 -3 0 -21 9 -40 20 -88 48
-230 115 -277 131 -29 10 -53 22 -53 26 0 5 -5 8 -11 8 -16 0 -40 27 -44 51
-6 29 30 89 53 89 5 0 10 6 9 12 -1 36 4 49 16 42 8 -5 8 -2 -2 9 -11 13 -11
17 -1 17 8 0 10 3 7 7 -4 3 -1 13 6 21 10 13 9 14 -2 7 -11 -6 -13 -4 -8 8 3
10 3 17 -1 17 -5 0 -14 15 -20 34 -9 24 -24 39 -50 50 -56 25 -67 33 -65 45 2
6 -2 11 -7 11 -6 0 -10 7 -10 16 0 23 -53 72 -87 80 -37 9 -73 33 -73 49 0 15
-33 46 -54 49 -15 2 -36 23 -66 65 -8 12 -20 21 -27 21 -9 0 -13 15 -13 46 0
33 3 43 13 38 8 -5 8 -3 -2 9 -7 9 -11 28 -9 42 3 13 2 22 -2 20 -5 -3 -10 2
-14 10 -3 8 -1 17 4 20 4 3 11 -1 13 -7 4 -9 6 -10 6 -1 1 6 -4 15 -9 18 -7 4
-7 12 0 25 8 15 22 18 95 18 62 0 83 -3 79 -11 -5 -8 -3 -8 6 0 11 10 16 9 27
-5 12 -16 13 -16 7 0 -5 14 -1 16 18 12 12 -4 38 -7 56 -8 20 0 31 -5 28 -13
-3 -7 1 -10 10 -6 7 3 14 9 14 15 0 5 6 6 13 1 6 -4 21 -8 32 -9 11 -1 40 -5
65 -9 25 -4 52 -8 60 -8 8 0 18 -5 22 -11 6 -8 8 -8 8 0 0 8 10 8 35 0 19 -6
35 -15 35 -19 0 -5 4 -6 9 -3 13 8 42 -4 35 -15 -3 -5 2 -6 10 -3 9 3 16 1 16
-6 0 -6 4 -8 10 -5 14 9 52 -14 44 -27 -4 -6 -3 -8 4 -5 12 8 44 -2 38 -12 -3
-4 5 -8 16 -8 12 -1 24 -6 27 -11 3 -5 16 -12 29 -16 12 -4 19 -12 16 -18 -4
-7 -2 -8 4 -4 6 4 20 1 31 -6 35 -21 36 1 3 35 -18 18 -29 37 -25 42 5 4 3 5
-4 2 -21 -13 -228 127 -216 146 3 6 1 7 -5 3 -15 -9 -165 142 -156 156 4 6 3
8 -3 5 -13 -8 -65 47 -56 59 5 5 4 6 -1 2 -10 -8 -36 15 -36 31 0 6 -4 11 -9
11 -17 0 -121 165 -121 193 0 5 -8 25 -17 45 -12 25 -14 37 -6 39 7 3 4 12 -8
24 -11 11 -18 27 -15 35 3 8 0 14 -6 14 -6 0 -5 6 3 17 8 9 9 14 3 10 -7 -4
-14 5 -18 25 -4 19 -2 34 5 38 7 5 4 10 -7 14 -9 3 -14 9 -11 13 4 3 2 14 -4
24 -7 14 -6 19 3 19 10 0 10 2 1 8 -7 4 -12 16 -11 27 0 11 0 25 -2 30 -5 21
0 36 12 29 7 -4 8 -3 4 5 -4 6 -11 9 -16 6 -5 -3 -8 24 -7 60 1 38 -2 65 -8
65 -7 0 -7 3 0 8 6 4 10 25 10 47 0 23 6 46 15 53 8 8 9 11 2 7 -16 -8 -16 27
1 44 9 11 9 12 0 7 -9 -5 -11 -2 -7 8 3 9 10 14 14 11 5 -3 12 -1 15 5 4 6 1
9 -7 8 -8 -2 -13 7 -12 24 2 47 26 148 36 148 5 0 6 5 2 12 -5 8 -1 9 12 5 18
-7 18 -6 -1 8 -12 10 -16 19 -10 23 6 4 10 12 10 17 1 29 17 85 25 85 5 0 9 8
9 18 1 39 14 84 27 89 7 2 11 10 8 17 -3 7 0 26 6 42 6 16 10 29 9 29 -1 0 3
10 10 23 7 12 17 20 23 16 6 -4 8 -3 4 4 -3 5 -3 12 1 15 5 2 2 2 -4 1 -7 -2
-13 1 -13 6 0 6 4 10 9 10 5 0 11 9 14 21 3 12 10 18 16 15 5 -4 13 -2 16 4 4
6 3 9 -2 8 -13 -5 -16 6 -9 30 6 17 13 22 24 17 14 -5 15 -4 5 6 -15 15 -17
33 -3 24 6 -3 7 1 4 9 -4 10 -1 16 7 16 7 0 9 3 6 7 -4 3 1 12 11 20 9 8 12
12 5 9 -8 -5 -8 0 0 19 7 14 15 25 20 25 4 0 7 9 7 20 0 11 5 20 11 20 5 0 7
5 4 10 -3 6 1 10 10 10 9 0 14 3 12 8 -8 13 12 52 28 52 8 0 15 5 15 11 0 5
-5 7 -11 3 -6 -3 0 11 14 32 13 22 29 39 35 39 6 0 14 4 19 9 4 5 3 6 -4 2 -6
-3 -14 -2 -18 4 -3 6 1 13 9 16 9 3 13 10 11 15 -6 9 21 69 31 69 3 0 2 -5 -2
-12 -4 -7 -3 -8 4 -4 6 4 8 14 5 23 -5 13 -2 15 11 10 9 -4 15 -3 11 2 -3 5 7
23 22 39 41 44 53 60 53 71 0 5 4 11 9 13 4 2 12 14 16 26 6 22 5 23 -17 12
-27 -15 -75 -65 -156 -165 -31 -38 -69 -81 -85 -94 -15 -14 -34 -38 -43 -55
-8 -17 -45 -53 -82 -81 -37 -27 -98 -83 -137 -124 -155 -163 -222 -224 -237
-214 -6 3 -8 2 -5 -4 3 -5 -3 -17 -14 -26 -25 -22 -32 -21 -24 3 4 12 2 20 -6
20 -9 0 -9 3 1 15 6 8 8 20 4 27 -5 7 -9 18 -10 23 0 6 -2 15 -2 21 -1 7 -11
14 -22 17 -12 3 -20 14 -21 29 -5 85 2 150 16 160 6 5 6 8 -2 8 -14 0 -6 67
11 89 8 12 8 13 -2 7 -10 -6 -11 -1 -6 21 4 15 9 32 11 36 3 4 6 61 8 125 2
64 4 122 5 127 5 23 -1 65 -9 65 -8 0 -29 -72 -37 -125 -2 -11 -6 -33 -9 -50
-10 -55 -16 -95 -21 -133 -2 -20 -6 -53 -9 -72 -4 -31 -14 -130 -20 -200 -4
-49 -17 -70 -55 -91 -44 -25 -51 -43 -44 -117 4 -53 24 -103 50 -130 8 -7 14
-23 14 -35 -1 -31 -33 -98 -59 -121 -11 -11 -21 -23 -21 -27 0 -4 -11 -20 -24
-34 -14 -15 -43 -57 -65 -94 -22 -38 -79 -122 -127 -187 -48 -66 -107 -148
-131 -184 -53 -78 -79 -113 -110 -147 -13 -13 -20 -29 -17 -35 4 -7 2 -8 -5
-4 -7 4 -11 15 -9 24 1 10 -1 22 -4 28 -12 19 -19 76 -9 70 5 -4 13 -1 17 5 4
7 3 9 -3 6 -12 -7 -39 20 -30 29 3 3 2 17 -3 30 -6 14 -6 26 0 29 6 3 6 15 0
29 -5 13 -7 35 -6 50 2 14 -1 26 -5 26 -5 0 -4 11 1 25 7 18 6 25 -3 25 -8 0
-7 4 3 10 12 8 12 10 1 10 -11 0 -11 3 0 17 12 15 12 16 -1 8 -9 -5 -7 1 5 14
11 12 15 22 10 21 -24 -5 -27 2 -9 22 10 12 13 18 7 14 -7 -4 -13 -2 -13 3 0
6 6 11 13 11 9 0 9 2 0 8 -6 4 -11 22 -11 39 1 18 5 30 9 27 4 -2 11 0 14 6 4
6 1 9 -6 8 -6 -2 -14 3 -17 11 -3 9 0 11 9 6 11 -6 11 -5 2 5 -6 7 -9 19 -6
26 3 8 -1 14 -8 14 -9 0 -10 3 -3 8 6 4 11 18 11 32 1 68 4 91 11 86 4 -2 8 4
8 15 0 10 -4 19 -8 19 -4 0 -5 7 -2 15 4 8 11 12 17 8 5 -3 7 -1 3 5 -3 5 -3
12 1 15 5 2 2 2 -4 1 -7 -2 -13 1 -13 6 0 6 4 10 8 10 5 0 8 14 7 31 -1 20 5
35 19 46 16 12 17 14 4 10 -10 -4 -18 -2 -18 3 0 6 5 10 11 10 5 0 7 5 4 10
-9 14 14 42 28 33 6 -3 7 -1 3 6 -4 6 -12 9 -17 6 -5 -4 -9 -1 -9 4 0 6 6 11
13 11 8 0 7 4 -3 10 -12 8 -12 10 5 10 15 0 17 2 6 9 -10 6 -10 10 -1 16 6 4
9 13 6 21 -3 8 -1 14 4 14 6 0 9 3 9 8 -4 21 2 32 14 26 9 -6 9 -5 0 7 -10 12
-9 22 6 50 10 19 20 39 22 44 2 6 7 9 11 8 4 -2 5 6 3 17 -2 10 6 38 18 62 11
24 21 45 22 48 5 24 18 50 26 50 6 0 8 3 6 8 -3 4 3 25 14 46 10 22 19 45 19
52 0 6 7 14 15 18 8 3 14 9 13 13 -4 17 14 53 24 47 6 -4 8 -2 5 4 -8 12 2 44
12 37 4 -2 7 6 7 18 -1 12 4 21 10 20 6 -1 10 8 10 20 -1 12 4 22 11 22 6 0
15 4 20 9 5 5 3 6 -4 2 -8 -5 -13 -1 -13 9 0 12 5 15 16 11 15 -6 15 -4 3 11
-12 15 -12 16 5 10 16 -6 17 -5 6 8 -10 12 -10 15 0 15 8 0 10 3 7 6 -9 9 12
46 22 39 5 -2 8 3 7 12 0 10 9 20 24 24 21 6 22 7 5 9 -15 1 -16 3 -5 7 18 8
95 63 87 63 -4 0 2 16 13 35 11 20 20 38 20 41 0 25 -217 -146 -330 -259 l-47
-48 -69 5 c-181 14 -244 35 -308 101 -33 33 -38 42 -35 61 0 4 -4 10 -10 13
-6 4 -13 23 -15 42 -3 18 -6 35 -7 37 -6 8 -4 29 5 41 8 11 8 13 -2 7 -16 -10
-13 25 3 36 6 5 6 8 -1 8 -12 0 -4 63 15 111 5 15 7 30 4 33 -4 3 -1 6 5 6 7
0 12 5 12 12 0 16 50 79 59 74 4 -3 13 0 21 6 12 8 12 9 -2 4 -30 -9 -21 4 47
71 65 63 80 93 48 93 -15 0 -79 -62 -203 -200 -25 -27 -65 -64 -90 -82 -25
-18 -46 -36 -48 -40 -2 -4 -8 -8 -12 -8 -10 0 -94 -55 -125 -82 -32 -28 -271
-178 -283 -178 -7 0 -19 14 -27 31 -14 25 -14 33 -3 47 10 12 10 14 1 8 -9 -5
-13 0 -13 13 0 12 0 24 0 29 0 4 4 7 9 7 5 0 13 4 18 8 4 5 3 8 -2 7 -21 -5
-33 0 -32 13 1 6 -2 42 -6 79 -5 37 -9 71 -9 75 0 5 -4 16 -10 27 -6 10 -6 16
-1 13 5 -4 10 0 10 8 0 8 -4 12 -9 9 -4 -3 -9 4 -9 15 -2 33 -4 39 -11 47 -4
4 -2 14 5 22 9 13 9 14 0 8 -8 -4 -13 -2 -14 6 -2 29 -6 54 -13 76 -5 14 -3
29 5 38 10 12 9 13 -6 8 -12 -5 -16 -4 -12 3 4 6 2 24 -3 39 -8 21 -8 29 2 36
8 5 9 8 2 8 -17 0 -25 42 -12 58 9 10 8 12 -1 10 -14 -3 -17 6 -26 85 -3 27
-8 54 -12 59 -10 17 -12 98 -2 104 18 11 -3 24 -37 24 -21 0 -34 -5 -34 -13z
m574 -852 c-16 -25 -34 -33 -34 -16 0 8 38 41 47 41 2 0 -4 -11 -13 -25z m-87
-91 c-31 -31 -57 -53 -57 -50 0 3 -19 -16 -42 -42 -24 -26 -45 -49 -49 -52 -3
-3 -18 -22 -33 -42 -18 -24 -33 -35 -43 -31 -12 5 -12 7 -1 14 8 5 9 9 2 9
-21 0 -11 88 11 105 11 8 24 15 28 15 5 0 28 14 52 30 24 17 49 30 55 30 6 0
13 7 16 15 4 10 14 14 28 10 17 -5 18 -4 6 4 -13 9 -12 12 8 17 12 4 22 10 22
15 0 5 7 9 15 9 8 0 15 5 15 12 0 9 3 9 12 0 10 -10 1 -24 -45 -68z m-282
-237 c4 -19 1 -43 -7 -58 -18 -35 -110 -129 -120 -123 -5 3 -7 2 -6 -3 5 -13
-29 -55 -36 -45 -3 6 2 18 11 28 10 10 17 19 16 21 -2 2 -3 10 -3 19 0 11 5
14 16 10 13 -5 14 -3 6 6 -12 15 29 83 43 70 5 -4 5 -2 1 5 -7 13 31 83 45 83
5 0 9 7 9 16 0 26 19 5 25 -29z m911 -74 c-6 -17 -5 -17 8 0 7 9 19 17 26 17
15 0 -51 -65 -125 -125 -50 -40 -92 -77 -189 -168 -28 -27 -77 -72 -110 -100
-32 -29 -68 -61 -81 -72 -12 -11 -48 -42 -81 -70 -32 -27 -77 -67 -100 -87
-23 -21 -46 -38 -52 -38 -14 0 -7 92 9 121 5 10 7 19 3 19 -3 0 -1 6 5 14 8
10 9 16 1 21 -7 4 -7 12 0 25 8 15 6 21 -7 29 -10 6 -14 11 -10 11 4 0 3 9 -3
20 -14 27 17 83 42 77 12 -3 15 0 11 11 -4 10 -2 13 5 8 7 -4 12 -2 12 4 0 6
4 9 8 6 5 -3 15 4 22 15 8 10 20 19 27 19 7 0 13 5 13 11 0 5 4 8 9 5 5 -3 12
1 15 10 3 8 10 12 16 9 5 -3 10 -2 10 3 0 5 14 15 30 22 17 7 30 17 30 22 0 6
8 7 17 4 10 -4 14 -4 10 0 -9 9 23 33 46 34 9 0 17 4 17 8 0 7 21 20 64 40 5
3 6 -2 2 -9 -4 -8 -1 -6 7 3 23 28 82 49 96 35 10 -9 12 -9 9 3 -2 9 4 14 15
14 9 -1 17 1 17 5 0 4 14 8 30 9 52 3 60 5 60 14 0 5 4 7 9 4 5 -4 20 -2 33 3
31 13 31 13 24 -6z m-2011 -323 c4 -6 1 -18 -6 -26 -7 -9 -8 -14 -2 -12 6 2
11 0 12 -5 0 -4 7 -23 16 -42 8 -20 10 -33 4 -29 -7 4 -7 0 0 -12 17 -31 42
-92 45 -106 1 -7 5 -18 9 -24 10 -17 1 -81 -22 -149 -11 -33 -22 -72 -25 -87
-3 -16 -9 -40 -12 -55 -3 -15 -11 -41 -18 -58 -8 -16 -19 -45 -26 -62 -15 -40
-48 -79 -58 -69 -11 12 -9 100 2 108 8 5 7 8 -1 8 -7 0 -10 9 -7 23 2 12 7 47
10 77 9 82 11 95 14 100 1 3 1 19 1 35 -1 17 5 63 13 104 8 41 12 81 8 89 -4
11 -2 13 9 7 12 -7 12 -6 1 7 -9 12 -10 18 -2 23 8 5 8 11 1 19 -6 7 -8 16 -4
19 3 4 6 27 6 52 0 25 4 48 9 51 4 3 6 10 3 15 -4 5 -2 9 4 9 5 0 13 -5 16
-10z m230 -264 c-31 -47 -60 -86 -65 -86 -24 0 -26 67 -2 97 18 22 113 85 119
79 2 -2 -21 -42 -52 -90z m2735 81 c0 -2 -8 -13 -17 -25 -10 -11 -27 -33 -38
-48 -11 -15 -42 -50 -68 -78 -26 -28 -78 -88 -114 -134 -37 -45 -70 -79 -75
-74 -16 16 -17 53 -3 59 8 3 12 9 9 15 -10 16 27 49 50 42 15 -4 17 -3 8 4
-11 7 -10 12 3 26 9 9 21 14 26 10 5 -3 8 -2 7 3 -2 5 17 26 41 48 25 22 72
66 105 98 56 54 66 62 66 54z m-1760 -137 c6 0 8 -4 5 -10 -3 -5 -1 -10 4 -10
14 0 14 -45 1 -70 -6 -11 -32 -34 -58 -52 -26 -17 -93 -79 -150 -137 -84 -88
-104 -103 -113 -91 -9 13 -10 12 -5 -2 6 -21 -12 -34 -27 -19 -7 7 -8 11 0 11
6 0 8 11 5 25 -2 14 0 25 6 25 6 0 9 9 7 20 -2 11 1 20 6 20 6 0 8 4 5 9 -8
13 19 73 29 64 4 -5 6 -1 3 7 -3 8 2 21 11 28 9 8 10 10 2 7 -12 -7 14 42 30
55 3 3 14 20 23 38 9 17 21 32 26 32 6 0 10 5 10 10 0 19 43 70 59 71 11 0 12
2 3 6 -10 4 -10 8 -1 19 6 8 15 11 20 8 5 -3 6 3 3 13 -3 10 15 -3 39 -29 25
-27 51 -48 57 -48z m-1087 -80 c7 0 6 -4 -3 -10 -10 -6 -11 -10 -3 -10 17 0
-3 -47 -34 -79 -26 -26 -29 -17 -13 39 5 19 10 40 11 45 0 6 6 19 12 30 10 18
11 18 15 3 2 -10 9 -18 15 -18z m2421 -251 c-3 -6 -7 -22 -9 -36 -1 -14 -18
-40 -36 -59 -50 -48 -79 -82 -79 -91 0 -18 -110 -143 -110 -126 0 6 16 32 35
57 19 26 35 49 35 52 0 3 19 32 42 65 29 41 47 58 58 54 12 -5 12 -4 3 6 -12
12 4 43 42 85 12 14 28 7 19 -7z m-1077 -90 c-3 -11 -2 -19 2 -19 4 0 8 -12 8
-27 0 -16 4 -44 7 -63 6 -35 9 -53 21 -145 4 -27 11 -57 16 -67 5 -10 8 -18 5
-18 -2 0 1 -19 8 -42 7 -24 11 -49 10 -55 -1 -7 -2 -17 -3 -22 -4 -29 -110
-91 -143 -83 -5 1 -8 -3 -8 -9 0 -7 -10 -9 -25 -7 -13 3 -22 1 -19 -3 3 -5 1
-9 -5 -9 -6 0 -34 -11 -63 -24 -29 -13 -84 -36 -123 -51 -38 -15 -83 -33 -100
-40 -66 -29 -125 -24 -112 9 3 8 2 18 -3 21 -5 3 -9 13 -8 23 0 34 -12 155
-17 160 -3 3 0 11 6 19 8 8 8 13 1 13 -12 0 -11 18 2 39 6 10 5 12 -2 7 -17
-10 -15 0 4 18 14 15 14 16 -2 16 -13 0 -14 3 -5 13 6 8 8 17 4 20 -3 4 2 7
13 8 11 0 14 3 6 6 -10 4 -10 8 0 21 10 12 10 14 1 8 -9 -5 -11 -2 -7 8 3 9
10 16 15 16 5 0 8 6 7 13 -2 6 3 11 10 9 6 -1 12 2 12 7 0 5 20 17 45 27 25 9
45 21 45 27 0 5 9 7 20 4 13 -3 20 0 20 9 0 21 51 39 62 22 6 -8 7 -5 3 11 -5
16 -4 21 4 17 6 -4 11 -2 11 4 0 7 7 9 16 6 9 -3 12 -2 9 5 -4 6 2 13 14 16
12 3 21 10 21 15 0 6 9 8 20 5 11 -3 18 0 17 7 -1 6 6 10 15 10 10 -1 17 1 16
5 -2 19 4 22 19 10 9 -8 14 -9 10 -3 -4 7 4 19 17 27 18 12 26 13 37 4 8 -7
10 -8 6 -3 -10 12 32 36 51 29 8 -3 11 -14 9 -24z m-801 -175 c-11 -8 -16 -14
-11 -14 5 0 -16 -23 -46 -50 -30 -28 -71 -66 -92 -85 -20 -19 -42 -35 -47 -35
-9 0 -14 28 -13 67 0 7 -2 12 -6 11 -3 -1 -19 4 -34 10 -16 7 -33 12 -39 12
-6 0 -6 6 2 15 11 13 10 14 -5 9 -13 -5 -16 -3 -14 11 7 33 144 59 177 33 12
-10 14 -10 8 0 -5 8 -1 12 11 13 29 1 75 8 79 11 1 2 13 4 26 5 22 2 22 1 4
-13z m-376 -98 c0 -15 -24 -39 -31 -31 -3 2 -6 -6 -8 -18 -7 -53 -3 -88 13
-106 11 -12 13 -21 7 -25 -7 -5 -7 -15 -1 -32 8 -21 4 -30 -27 -65 -33 -36
-35 -42 -21 -55 14 -14 14 -19 1 -45 -21 -42 -114 -111 -130 -97 -17 14 -17
41 0 33 6 -4 3 1 -7 9 -15 12 -16 16 -5 17 10 0 10 2 2 6 -7 2 -13 11 -13 19
0 10 5 12 13 8 7 -5 6 0 -3 11 -14 17 -13 18 5 12 l20 -7 -20 16 c-20 15 -20
15 -1 30 11 8 14 14 8 14 -17 0 -15 26 4 44 12 12 12 16 2 17 -7 0 -4 4 7 9
11 5 14 9 8 9 -10 1 -10 7 -1 26 6 13 15 22 19 19 5 -3 6 2 3 10 -4 9 6 26 23
42 15 15 21 24 13 20 -9 -5 -8 -2 2 7 10 8 14 18 10 22 -4 4 3 5 15 2 13 -3
26 -1 29 4 3 5 2 9 -3 8 -27 -5 -24 5 12 41 43 42 55 48 55 26z m-391 -124
c-5 -2 -9 -8 -9 -13 0 -6 5 -7 10 -4 6 3 10 3 11 -2 0 -4 2 -15 4 -23 2 -8 7
-31 10 -50 12 -72 81 -231 110 -255 37 -31 9 -77 -77 -131 -27 -16 -48 -34
-48 -40 0 -7 -7 -15 -16 -18 -14 -5 -14 -9 -3 -23 8 -9 13 -19 13 -22 -1 -3 6
-16 16 -28 16 -20 19 -21 45 -7 24 13 26 12 15 -1 -7 -8 -19 -15 -26 -15 -8 0
-14 -5 -14 -12 0 -6 -3 -8 -7 -5 -3 4 -11 0 -17 -7 -20 -26 -89 -57 -97 -44
-4 7 -6 15 -3 19 2 5 7 48 11 96 3 48 11 91 17 95 7 5 7 8 1 8 -6 0 -10 12 -9
28 1 15 3 40 3 55 1 20 5 26 14 21 9 -6 9 -4 1 7 -5 8 -9 25 -7 39 2 14 4 36
4 50 1 14 4 29 7 34 2 5 6 36 7 70 5 133 4 129 23 122 15 -5 15 -5 1 6 -9 7
-14 22 -12 33 2 11 4 31 5 44 l1 24 13 -24 c7 -13 8 -25 3 -27z m1852 -64 c8
-15 8 -27 0 -44 -9 -20 -7 -28 9 -44 11 -11 17 -20 13 -20 -4 0 3 -7 15 -16
43 -30 21 -72 -41 -81 -23 -3 -39 2 -56 16 -21 18 -25 19 -69 5 -26 -8 -51
-16 -57 -18 -5 -1 -25 -10 -42 -19 -18 -10 -33 -15 -33 -12 0 3 -6 1 -12 -5
-7 -6 -28 -20 -46 -31 -37 -22 -35 -39 3 -34 14 1 25 -2 25 -8 0 -5 6 -4 14 2
11 9 15 9 20 -1 5 -11 7 -11 12 0 5 10 9 10 22 0 13 -11 14 -11 7 1 -6 11 -4
13 9 8 10 -4 15 -3 11 3 -3 6 1 10 10 10 9 0 14 4 10 9 -3 5 0 13 5 16 6 4 15
17 20 30 12 32 54 38 80 10 21 -22 22 -48 5 -75 -14 -22 -13 -32 7 -61 14 -21
15 -29 5 -42 -16 -21 -75 -28 -62 -7 3 5 0 7 -9 4 -10 -4 -22 6 -36 28 -11 18
-20 29 -20 23 0 -5 -5 -3 -10 5 -5 8 -10 11 -10 5 0 -13 -93 -14 -102 0 -5 6
-8 4 -8 -5 0 -13 -1 -13 -10 0 -5 8 -10 10 -10 4 0 -12 -29 -12 -49 1 -8 5
-12 4 -8 -1 8 -13 -126 -12 -135 1 -5 6 -8 6 -8 -2 0 -17 -118 -74 -124 -59
-2 6 -5 4 -5 -5 -1 -9 -12 -20 -25 -23 -17 -4 -24 -12 -21 -24 1 -10 -3 -29
-10 -42 l-14 -25 -9 25 c-5 14 -8 28 -5 33 2 4 -1 7 -6 7 -6 0 -11 9 -11 20 0
11 -6 20 -12 20 -9 0 -8 4 2 10 13 8 12 10 -2 10 -10 0 -18 5 -18 10 0 6 6 10
14 10 8 0 18 -4 21 -10 3 -5 16 -10 27 -10 31 0 99 32 95 44 -2 6 -35 11 -75
12 -81 1 -102 7 -102 29 0 12 11 14 60 11 32 -1 67 -9 77 -17 9 -8 14 -9 10
-3 -4 7 5 11 23 11 16 0 27 -4 24 -8 -2 -4 1 -11 7 -15 7 -4 9 -3 6 3 -4 6 0
16 7 22 9 8 16 8 20 2 4 -6 18 -6 36 -1 18 5 32 5 35 -1 4 -5 12 -9 18 -9 7 0
6 4 -3 10 -13 9 -7 14 13 11 4 0 7 4 7 10 0 5 5 7 10 4 6 -3 10 -2 10 2 0 5
19 17 43 28 23 10 44 21 47 24 15 18 90 47 98 39 6 -6 12 -5 17 3 5 8 4 10 -3
5 -7 -4 -12 -3 -12 3 0 5 14 12 30 16 17 4 30 10 30 15 0 4 8 10 18 13 9 2 26
8 36 13 15 6 17 4 11 -7 -5 -8 -5 -11 1 -6 5 5 10 13 10 18 1 5 2 14 3 20 0 5
5 8 10 4 5 -3 13 -1 16 5 4 6 1 9 -5 8 -7 -2 -14 5 -15 15 -3 14 1 17 13 12
13 -5 14 -3 5 6 -8 8 -8 19 -1 41 8 22 13 26 19 16 7 -10 9 -10 9 3 0 23 58
12 71 -13z m-1436 -8 c3 -5 -1 -10 -9 -10 -9 0 -16 5 -16 10 0 6 4 10 9 10 6
0 13 -4 16 -10z m1710 -270 c2 -12 1 -20 -2 -16 -4 4 -8 16 -10 28 -2 12 -1
19 2 16 3 -3 8 -16 10 -28z m25 -70 c0 -5 0 -13 -1 -16 0 -4 4 -10 10 -13 6
-4 12 -17 14 -29 2 -12 9 -28 15 -34 7 -7 12 -16 12 -21 0 -16 92 -157 109
-167 9 -5 11 -10 5 -10 -12 0 -68 60 -72 78 -1 7 -16 31 -32 53 -16 23 -27 45
-24 50 3 5 1 9 -5 9 -8 0 -20 23 -27 53 -1 4 -3 9 -4 12 -1 3 -3 8 -4 13 -1 4
-5 13 -9 20 -5 7 -4 12 2 12 6 0 11 -4 11 -10z m-1961 -155 c-9 -8 -79 -35
-79 -30 0 3 15 11 33 19 32 15 54 20 46 11z m985 -106 c-3 -5 -1 -9 4 -9 6 0
15 -14 21 -30 6 -18 6 -28 1 -25 -6 4 -10 12 -10 19 0 8 -7 19 -15 26 -8 7
-13 16 -10 20 3 5 1 11 -5 15 -5 3 -10 12 -10 18 0 7 7 3 15 -7 8 -10 12 -23
9 -27z m-826 -39 c-1 -16 -5 -30 -10 -30 -4 0 -8 -5 -8 -11 0 -5 5 -7 11 -3 8
4 8 1 1 -13 -7 -11 -7 -25 -1 -35 6 -10 6 -19 0 -22 -5 -3 -7 -16 -3 -29 5
-19 3 -20 -10 -10 -19 16 -15 142 4 155 7 4 9 8 5 8 -5 0 -5 5 -2 10 10 17 14
11 13 -20z m2056 -82 c-6 -10 58 -68 75 -68 5 0 12 -7 15 -16 6 -15 3 -14 -21
1 -38 24 -93 84 -93 102 0 7 -6 16 -14 19 -8 3 -17 13 -21 22 -3 9 10 1 28
-18 19 -19 33 -38 31 -42z m-1170 -5 c15 -27 93 -120 82 -96 -4 6 -2 14 4 18
5 3 10 1 10 -4 0 -6 5 -10 12 -8 8 1 11 -9 9 -33 -4 -45 -5 -46 -31 -23 -26
25 -117 173 -106 173 3 0 12 -12 20 -27z m591 -40 c14 -15 25 -33 25 -40 0 -7
5 -13 11 -13 5 0 8 -4 4 -9 -3 -5 -1 -12 5 -16 8 -5 47 -84 50 -103 1 -4 10
-22 21 -39 11 -18 18 -37 14 -43 -3 -5 -2 -10 3 -10 5 0 18 -19 30 -42 27 -58
33 -78 22 -78 -15 0 -50 33 -50 48 0 7 -6 25 -14 40 -8 15 -16 36 -18 47 -1
11 -9 26 -16 33 -7 8 -10 18 -7 23 4 5 2 9 -2 9 -5 0 -14 14 -20 30 -9 23 -8
29 0 24 7 -4 2 3 -10 15 -13 12 -23 29 -23 37 0 8 -9 24 -20 36 -11 12 -20 30
-20 40 0 10 -4 18 -10 18 -5 0 -10 5 -10 10 0 16 7 12 35 -17z m-295 4 c0 9
49 13 51 4 0 -4 2 -15 4 -26 5 -22 14 -92 20 -144 3 -19 10 -60 17 -90 14 -68
15 -70 18 -73 5 -7 13 -66 11 -85 -1 -7 -8 -10 -18 -6 -28 11 -52 36 -46 46 3
6 1 7 -5 3 -7 -4 -12 -2 -12 4 0 6 -4 9 -9 6 -12 -8 -72 51 -76 76 -5 24 -8
138 -5 153 1 6 1 12 0 15 -1 3 -4 28 -6 55 -3 38 0 53 13 62 12 9 20 10 30 2
7 -6 13 -7 13 -2z m224 -18 c-3 -5 0 -9 6 -9 7 0 9 -7 6 -16 -3 -8 -2 -12 3
-9 9 5 27 -32 23 -47 -1 -5 2 -8 6 -8 13 0 33 -50 26 -62 -4 -6 -2 -8 4 -4 10
6 65 -99 64 -121 0 -4 6 -15 13 -23 7 -8 17 -27 20 -43 4 -15 11 -30 16 -33
12 -7 12 -54 0 -54 -5 0 -23 30 -41 66 -25 53 -29 68 -19 80 10 12 10 15 -1
12 -16 -4 -51 60 -46 84 2 9 -2 19 -10 22 -8 3 -14 12 -14 21 0 8 -5 15 -11
15 -5 0 -8 4 -5 9 3 5 -1 14 -9 21 -8 7 -12 16 -9 21 3 5 0 9 -6 9 -6 0 -8 5
-5 10 3 6 2 10 -3 10 -6 0 -13 11 -16 24 -3 13 -9 32 -13 43 -6 16 -5 16 10 4
9 -7 14 -17 11 -22z m160 11 c7 0 22 -18 34 -41 25 -47 27 -53 10 -43 -7 4 -3
-3 10 -15 12 -12 22 -30 22 -41 0 -10 4 -20 9 -22 5 -1 11 -12 13 -23 1 -11 5
-22 8 -25 8 -8 70 -128 70 -135 0 -4 -10 -5 -22 -3 -13 2 -22 9 -20 16 1 6 -2
12 -6 12 -7 0 -33 59 -33 77 -1 5 -5 14 -11 20 -6 7 -8 20 -4 28 3 9 2 13 -4
10 -5 -3 -14 4 -20 15 -6 11 -8 20 -5 20 6 0 -31 69 -60 114 -8 12 -12 26 -8
29 3 4 1 7 -6 7 -7 0 -9 5 -5 12 6 9 9 9 12 0 2 -7 9 -12 16 -12z m78 5 c10
-4 15 -11 12 -16 -3 -5 -1 -9 5 -9 11 0 74 -107 74 -127 0 -7 4 -13 8 -13 10
0 61 -111 54 -118 -3 -3 0 -11 6 -18 6 -8 6 -14 0 -18 -5 -4 -12 -2 -16 4 -4
6 -11 7 -17 4 -7 -5 -9 -1 -5 9 3 9 1 17 -5 19 -11 4 -19 26 -22 64 0 14 -6
20 -15 16 -10 -4 -13 -1 -8 12 4 10 3 15 -3 11 -9 -6 -36 34 -32 48 1 4 -2 7
-8 7 -12 0 -41 52 -56 101 -12 38 -9 41 28 24z m-362 -10 c0 -8 -4 -15 -8 -15
-5 0 -9 7 -9 15 0 8 4 15 9 15 4 0 8 -7 8 -15z m64 -11 c3 -8 2 -12 -4 -9 -6
3 -10 10 -10 16 0 14 7 11 14 -7z m394 -9 c14 -15 17 -25 9 -26 -6 0 -2 -4 10
-9 14 -6 26 -24 34 -52 7 -24 16 -45 19 -48 14 -13 32 -59 26 -69 -5 -7 -1 -9
8 -5 12 5 16 -1 16 -20 0 -26 -1 -26 -19 -9 -16 16 -34 53 -36 75 0 3 -10 18
-22 32 -13 14 -20 26 -16 26 3 0 -2 9 -12 20 -20 22 -8 28 14 8 11 -11 12 -10
6 0 -4 7 -18 17 -31 22 -14 6 -24 18 -24 30 0 11 -4 20 -10 20 -5 0 -10 7 -10
15 0 22 13 18 38 -10z m-1751 -27 c-7 -4 -8 -8 -1 -8 5 0 11 -19 13 -42 1 -23
5 -46 8 -51 7 -12 22 -77 17 -77 -10 0 -41 78 -40 102 1 14 -3 24 -8 21 -5 -4
-7 3 -4 15 4 12 3 22 0 22 -4 0 -8 11 -8 24 -2 22 1 23 17 13 13 -8 15 -13 6
-19z m1823 25 c0 -5 16 -9 36 -9 20 -1 39 -6 43 -11 3 -5 15 -9 25 -8 11 0 21
-6 24 -14 3 -8 0 -11 -7 -7 -6 4 -11 2 -11 -4 0 -6 -4 -9 -9 -5 -6 3 -14 -2
-19 -10 -17 -31 -90 -21 -78 10 3 8 0 17 -6 21 -7 5 -8 2 -3 -7 5 -8 4 -11 0
-7 -12 11 -15 58 -4 58 5 0 9 -3 9 -7z m-530 -13 c0 -5 -2 -10 -4 -10 -3 0 -8
5 -11 10 -3 6 -1 10 4 10 6 0 11 -4 11 -10z m-240 -57 c0 -32 -4 -53 -8 -46
-4 7 -7 29 -6 50 3 51 3 53 9 53 3 0 5 -26 5 -57z m57 51 c-3 -3 -12 -4 -19
-1 -8 3 -5 6 6 6 11 1 17 -2 13 -5z m272 -26 c28 -69 54 -125 77 -169 13 -25
21 -49 17 -53 -3 -3 -1 -6 5 -6 7 0 12 -5 12 -10 0 -6 13 -38 29 -72 17 -34
28 -65 25 -70 -3 -4 -1 -8 4 -8 5 0 9 -6 10 -12 2 -31 21 -91 36 -113 10 -15
12 -26 6 -30 -6 -3 -10 -1 -10 4 0 6 -3 10 -7 9 -12 -4 -83 40 -83 52 0 5 -4
9 -9 8 -14 -4 -52 44 -47 58 3 7 1 14 -4 16 -6 2 -12 23 -14 48 -2 25 -8 56
-13 70 -8 19 -7 28 6 38 13 10 13 12 1 10 -9 -2 -14 4 -14 15 1 9 -3 17 -9 17
-6 0 -8 3 -5 6 3 3 0 27 -7 54 -10 36 -10 51 -1 61 8 9 8 10 -1 5 -7 -4 -13
-4 -14 1 0 4 -3 17 -5 28 -3 11 -6 27 -8 35 -1 9 -5 21 -10 28 -4 7 -2 12 6
12 7 0 19 -15 27 -32z m-273 -51 c1 -36 -3 -65 -10 -69 -8 -6 -7 -8 1 -8 7 0
12 -11 11 -25 -2 -15 -6 -21 -12 -15 -14 14 -16 180 -2 180 7 0 11 -24 12 -63z
m192 51 c2 -27 14 -73 21 -83 5 -5 9 -17 9 -25 1 -8 4 -37 7 -65 3 -27 6 -57
6 -65 1 -8 8 -41 16 -73 17 -72 12 -94 -11 -48 -12 23 -14 31 -4 25 10 -6 11
-5 1 7 -6 8 -14 32 -17 54 -3 22 -7 51 -10 65 -3 14 -7 48 -10 75 -3 28 -10
66 -16 85 -5 19 -10 41 -10 47 0 17 16 17 18 1z m-757 -88 c6 0 7 5 4 10 -4 6
7 10 25 10 17 0 29 -4 26 -8 -3 -5 1 -9 9 -9 8 0 12 4 9 9 -3 4 0 8 5 8 6 0
11 -3 11 -7 0 -5 21 -9 47 -10 27 -2 49 -7 51 -13 2 -5 17 -10 33 -10 16 0 29
-4 29 -10 0 -5 7 -10 15 -10 23 0 65 -22 59 -31 -3 -5 2 -6 11 -3 20 8 115
-36 115 -53 0 -7 -7 -13 -16 -13 -9 0 -12 5 -8 13 5 8 2 8 -9 -2 -12 -9 -17
-10 -17 -2 0 7 -4 10 -8 7 -12 -7 -95 23 -104 37 -6 9 -8 9 -8 0 0 -7 -7 -10
-15 -7 -8 4 -12 11 -8 18 4 7 2 7 -7 -1 -10 -9 -19 -9 -41 3 -16 8 -29 12 -29
10 0 -3 -15 0 -32 5 -18 6 -50 12 -72 15 -44 5 -59 12 -51 25 3 5 -1 6 -10 3
-19 -8 -47 14 -38 29 5 8 8 7 11 -1 2 -7 8 -12 13 -12z m-170 -7 c0 -16 1 -16
8 1 5 14 10 16 15 8 11 -19 -3 -32 -32 -32 -39 1 -83 -6 -116 -19 -16 -6 -31
-10 -33 -7 -3 2 6 7 19 11 13 4 34 16 47 26 13 10 27 16 31 14 5 -3 11 -1 15
5 11 17 45 11 46 -7z m1615 3 c6 -17 -12 -56 -35 -73 -22 -17 -34 -16 -28 1 4
10 1 13 -9 9 -18 -7 -18 17 1 43 8 10 15 15 15 11 0 -5 7 -1 16 7 19 20 33 20
40 2z m402 -20 c4 -4 13 -89 16 -156 3 -55 -7 -96 -23 -92 -6 1 -11 -3 -11 -9
0 -5 -4 -8 -8 -5 -10 6 -99 -34 -149 -68 -38 -26 -72 -37 -38 -13 14 11 15 16
5 22 -9 5 -11 4 -6 -3 4 -7 3 -12 -3 -12 -15 0 -8 73 9 88 8 8 9 11 3 7 -9 -4
-13 3 -13 22 0 16 6 35 13 42 10 11 9 13 -3 7 -8 -4 -4 3 10 15 18 16 20 20 7
16 -14 -5 -17 -3 -14 11 3 9 8 30 12 46 5 23 8 27 16 15 5 -7 9 -9 9 -3 0 5
-6 16 -12 23 -11 12 -10 13 6 7 17 -6 17 -5 5 11 -9 11 -10 14 -1 9 6 -4 12
-3 12 2 0 5 9 12 20 15 11 3 20 0 20 -6 0 -9 2 -9 8 -1 4 6 14 13 22 16 15 5
81 0 88 -6z m-2628 -74 c35 -5 110 -42 110 -55 0 -5 3 -7 6 -4 4 4 14 -1 23
-11 9 -9 34 -33 56 -52 22 -18 39 -37 38 -41 -1 -4 9 -10 22 -13 24 -6 35 -26
15 -26 -5 0 -10 4 -10 9 0 5 -10 11 -23 15 -29 7 -69 41 -60 50 4 4 0 4 -10 0
-20 -7 -50 13 -40 29 3 5 1 7 -4 4 -14 -9 -65 17 -55 28 4 5 2 5 -5 2 -28 -17
-123 49 -107 74 3 6 9 7 13 3 3 -5 17 -10 31 -12z m-156 -24 c-3 -5 -9 -6 -14
-3 -4 3 -10 -1 -13 -7 -2 -7 -8 -9 -13 -5 -5 4 -3 12 4 16 17 10 42 10 36 -1z
m753 -12 c-3 -8 -1 -16 5 -18 18 -6 -21 -38 -45 -37 -16 1 -17 3 -5 6 9 2 22
17 28 34 12 29 27 42 17 15z m108 4 c-3 -5 -11 -10 -16 -10 -6 0 -7 5 -4 10 3
6 11 10 16 10 6 0 7 -4 4 -10z m-881 -33 c14 -13 23 -26 20 -29 -3 -4 3 -5 13
-4 10 0 17 -5 15 -12 -1 -8 2 -11 7 -8 5 4 15 1 23 -6 7 -7 27 -20 43 -28 17
-8 36 -20 43 -27 7 -7 26 -20 42 -30 17 -9 30 -21 30 -25 0 -4 5 -8 11 -8 16
0 39 -26 31 -35 -4 -5 -2 -5 5 -1 7 4 21 -1 31 -11 10 -10 32 -26 48 -35 16
-10 28 -22 26 -28 -1 -7 2 -9 7 -6 5 4 16 0 24 -8 8 -8 16 -13 18 -11 3 2 15
-5 29 -16 19 -14 22 -21 12 -27 -18 -12 -218 -12 -272 -1 -47 11 -153 58 -158
71 -2 4 -9 8 -16 8 -17 0 -78 65 -69 74 5 4 1 6 -7 4 -8 -2 -14 3 -13 10 2 6
-1 12 -6 12 -5 0 -14 14 -20 30 -7 22 -7 30 1 30 6 0 8 3 5 7 -4 3 -1 13 6 21
10 13 9 14 -2 8 -10 -7 -12 -3 -6 15 17 52 25 69 35 69 6 0 8 5 5 10 -12 19
14 10 39 -13z m901 13 c-3 -5 -13 -10 -21 -10 -8 0 -12 5 -9 10 3 6 13 10 21
10 8 0 12 -4 9 -10z m101 -2 c-4 6 -2 12 3 12 6 0 11 -4 11 -10 0 -5 0 -13 0
-17 0 -12 -24 -10 -32 2 -14 19 -8 28 9 14 11 -10 14 -10 9 -1z m-330 -5 c-3
-4 3 -12 15 -19 12 -6 17 -14 12 -17 -6 -4 -21 5 -33 18 -21 23 -22 25 -5 25
10 0 15 -3 11 -7z m454 -36 c0 -5 -4 -5 -10 -2 -5 3 -10 0 -10 -7 0 -10 -2
-10 -9 1 -6 9 -5 19 2 26 12 13 26 2 27 -18z m98 -29 c-6 -18 -25 -21 -25 -3
0 8 7 15 15 15 7 0 12 -5 10 -12z m1127 -19 c-4 -5 -1 -9 4 -9 6 0 11 -7 11
-15 0 -8 5 -15 10 -15 6 0 10 -4 10 -10 0 -17 -19 -11 -30 11 -16 28 -21 61
-9 54 5 -4 7 -11 4 -16z m-1038 -11 c2 -18 0 -20 -7 -8 -12 18 -13 30 -2 30 4
0 9 -10 9 -22z m-617 -19 c0 -15 -42 -52 -49 -42 -3 5 -19 19 -35 31 -16 12
-24 22 -18 22 6 0 17 -6 24 -14 10 -11 16 -9 31 11 15 19 22 21 33 12 8 -6 14
-15 14 -20z m727 -8 c-1 -16 -4 -17 -15 -9 -10 9 -11 13 0 19 17 11 17 12 15
-10z m248 -11 c-3 -6 0 -8 7 -5 7 3 18 1 23 -3 21 -14 45 -62 45 -87 0 -43
-36 -28 -78 32 -25 35 -28 48 -9 37 6 -4 2 3 -11 15 -26 26 -21 46 9 31 11 -6
17 -15 14 -20z m627 17 c7 4 9 -1 6 -15 -4 -13 -1 -20 5 -19 6 1 13 -6 15 -15
2 -11 -2 -18 -12 -18 -19 0 -24 8 -30 51 -3 19 -3 28 0 21 3 -6 11 -9 16 -5z
m-1167 -18 c-4 -5 -1 -9 4 -9 6 0 11 -9 11 -20 0 -11 5 -20 11 -20 6 0 9 -9 6
-20 -3 -11 -1 -18 4 -15 6 5 39 -42 44 -65 4 -14 18 -47 26 -64 8 -14 7 -17
-3 -11 -8 4 -7 1 2 -7 8 -7 16 -22 18 -33 9 -61 22 -81 53 -83 18 -1 37 -6 43
-10 11 -7 17 -8 37 -11 5 0 8 -5 5 -10 -3 -5 0 -9 7 -8 45 1 59 -4 53 -19 -5
-14 -4 -15 9 -4 14 12 19 7 16 -13 -1 -5 3 -6 9 -2 14 9 52 -4 45 -16 -3 -5 1
-6 9 -3 8 3 19 -2 25 -13 19 -37 -55 -59 -90 -27 -9 8 -24 16 -32 18 -8 1 -25
9 -38 17 -13 8 -46 23 -74 33 -27 11 -55 23 -62 28 -7 5 -17 7 -22 4 -5 -4
-12 -2 -16 4 -3 5 -15 10 -26 10 -10 0 -19 5 -19 12 0 6 -3 9 -6 6 -3 -4 -20
-2 -37 3 -44 14 -50 15 -149 29 -49 7 -88 16 -88 22 0 5 5 6 10 3 6 -3 10 -1
10 4 0 6 5 11 11 11 5 0 7 -6 3 -12 -6 -10 -4 -10 7 -2 8 6 24 10 37 9 12 -1
22 1 22 5 0 4 7 7 15 7 9 0 14 -6 11 -14 -4 -10 -1 -10 12 -2 12 8 25 7 47 -2
17 -6 41 -13 54 -15 13 -2 27 -7 30 -11 3 -5 22 -8 41 -8 44 1 43 11 -12 122
-23 47 -37 87 -33 94 5 8 4 10 -4 5 -6 -4 -14 0 -17 11 -3 10 -10 27 -15 38
-13 31 -19 76 -8 70 5 -4 7 -11 4 -16z m1795 -15 c0 -8 5 -14 12 -14 9 0 9 -3
0 -12 -10 -10 -15 -10 -22 2 -13 20 -13 53 0 45 6 -3 10 -13 10 -21z m-1679
-9 c11 7 71 -84 63 -96 -3 -5 -1 -9 4 -9 8 0 55 -126 54 -147 0 -4 4 -16 9
-25 5 -10 5 -19 0 -22 -11 -7 -51 41 -51 60 0 8 -6 14 -12 14 -10 0 -10 2 0 9
11 6 10 10 -3 15 -14 5 -15 9 -4 22 10 12 10 15 -2 12 -9 -2 -14 5 -13 20 0
12 -3 22 -8 22 -5 0 -6 10 -2 23 3 12 3 19 -2 14 -4 -4 -13 5 -19 20 -9 20 -9
30 -1 35 7 5 5 8 -5 8 -17 0 -30 21 -28 43 1 7 3 4 6 -6 2 -9 9 -15 14 -12z
m268 11 c9 -10 9 -16 1 -21 -13 -8 -42 14 -34 26 8 13 20 11 33 -5z m-1009
-22 c0 -2 -9 0 -20 6 -11 6 -20 13 -20 16 0 2 9 0 20 -6 11 -6 20 -13 20 -16z
m576 -1 c-3 -7 -1 -13 4 -13 6 0 10 -4 10 -10 0 -15 -49 -8 -55 8 -7 20 2 31
25 29 12 -1 18 -7 16 -14z m1128 5 c-5 -9 -2 -9 9 1 15 11 17 11 17 -2 0 -8 6
-17 14 -20 17 -7 15 -39 -2 -45 -16 -5 -40 20 -48 52 -4 17 -2 26 6 26 6 0 8
-5 4 -12z m-53 -42 c-6 -8 -6 -17 1 -26 8 -12 9 -11 4 3 -4 12 -2 17 6 15 17
-6 17 -53 0 -53 -20 0 -51 56 -34 62 6 3 10 9 7 14 -4 5 1 6 10 3 10 -4 12
-10 6 -18z m-730 -99 c10 -28 19 -59 19 -68 0 -9 7 -29 15 -45 11 -22 12 -30
2 -36 -8 -5 -7 -8 6 -8 11 0 17 -8 17 -21 0 -21 -1 -21 -20 4 -11 14 -20 32
-20 40 0 9 -4 17 -10 19 -5 2 -11 12 -13 23 -2 11 -14 42 -27 69 -12 27 -25
68 -28 90 l-5 41 23 -28 c12 -15 31 -51 41 -80z m1383 88 c6 -17 -19 -45 -40
-45 -8 0 -14 -5 -14 -11 0 -6 -7 -8 -16 -5 -8 3 -13 2 -11 -2 3 -4 -5 -16 -16
-27 -11 -12 -17 -14 -13 -5 6 12 4 11 -6 -1 -16 -19 -78 -53 -78 -42 0 5 15
18 33 31 46 32 15 27 -62 -9 -36 -18 -78 -32 -93 -33 -14 0 -24 -4 -21 -8 2
-5 -7 -8 -21 -8 -13 0 -26 -4 -28 -9 -1 -4 -14 -12 -28 -16 l-25 -7 27 21 c14
11 31 21 37 21 6 0 11 3 11 8 0 4 11 12 25 19 19 8 24 8 19 0 -3 -7 1 -4 9 6
8 10 28 20 44 22 15 2 28 4 28 5 0 1 13 4 29 6 35 4 88 24 97 36 3 5 16 10 27
11 12 1 22 6 22 13 0 11 37 42 51 43 4 1 9 -6 13 -14z m-1279 -25 c19 -11 35
-17 35 -15 0 3 18 -6 40 -20 22 -14 45 -25 52 -26 10 0 10 -2 1 -5 -12 -5
-143 52 -153 66 -3 4 -14 10 -25 13 -16 4 -16 5 -3 6 10 0 33 -8 53 -19z m276
13 c9 -80 7 -87 -12 -52 -9 17 -8 23 2 30 11 7 10 9 -4 9 -10 0 -15 5 -12 10
7 12 25 13 26 3z m299 -55 c0 -10 -4 -18 -10 -18 -5 0 -10 5 -10 11 0 5 -4 8
-9 5 -17 -11 -20 24 -3 34 16 11 16 11 0 6 -20 -6 -25 10 -5 17 14 5 36 -29
37 -55z m-993 27 c34 -22 19 -36 -33 -31 -50 4 -71 15 -33 17 17 1 19 3 7 6
-27 7 -22 18 9 21 14 1 37 -5 50 -13z m393 -19 c79 -30 120 -52 120 -64 0 -7
4 -11 8 -8 12 7 64 -29 55 -38 -4 -4 0 -4 10 0 9 3 17 1 17 -5 0 -6 7 -8 15
-5 10 4 15 0 16 -12 0 -11 3 -14 6 -7 3 9 10 10 21 4 18 -10 24 -11 47 -11 23
0 18 -17 -6 -23 -31 -8 -219 56 -219 75 0 4 -6 8 -13 8 -19 0 -67 24 -67 33 0
5 -4 5 -10 2 -5 -3 -10 -1 -10 4 0 6 -7 11 -15 11 -8 0 -15 4 -15 9 0 5 -3 16
-6 25 -7 19 0 20 46 2z m980 -13 c0 -3 -7 -2 -15 1 -9 3 -18 -1 -21 -9 -4 -8
-11 -12 -17 -8 -14 9 21 33 39 26 8 -3 14 -7 14 -10z m-575 -7 c8 -7 11 -17 7
-20 -3 -4 1 -4 10 -1 9 4 19 2 23 -4 3 -6 3 -11 -2 -12 -4 0 -19 -2 -32 -5
-18 -3 -22 -1 -17 11 3 9 2 13 -4 10 -6 -3 -10 3 -10 14 0 25 6 26 25 7z
m1032 -1 c0 -9 -6 -14 -13 -11 -8 3 -11 0 -8 -8 3 -8 -19 -32 -55 -60 -67 -51
-71 -52 -71 -32 0 19 30 43 31 25 0 -8 5 -2 11 14 5 15 20 30 33 33 13 3 31
17 40 30 18 27 32 31 32 9z m-558 -34 c-15 -5 -22 6 -14 19 6 9 10 9 16 -1 5
-8 4 -15 -2 -18z m686 19 c5 -8 11 -7 21 1 11 9 14 9 14 0 0 -7 4 -10 9 -6 5
3 22 -5 37 -18 30 -26 26 -43 -12 -57 -13 -5 -24 -14 -24 -19 0 -9 97 -37 113
-33 4 1 13 -2 20 -8 7 -6 21 -17 32 -24 24 -17 26 -79 2 -103 -9 -10 -36 -17
-64 -19 -26 -1 -57 -5 -68 -8 -15 -5 -26 2 -45 31 -14 21 -28 46 -32 56 -10
23 -25 22 -38 -3 -9 -16 -13 -18 -24 -8 -12 11 -11 14 3 20 14 6 14 7 -2 7
-10 1 -15 6 -12 11 3 6 1 10 -4 10 -6 0 -11 5 -11 11 0 5 4 8 9 5 5 -4 7 3 4
14 -3 11 2 32 12 46 9 15 12 23 6 20 -7 -5 -11 2 -11 19 l0 26 -31 -21 c-16
-12 -44 -35 -61 -51 -17 -15 -35 -26 -40 -23 -5 3 -8 2 -7 -3 3 -20 -2 -25
-15 -14 -13 11 -12 15 5 32 11 11 24 17 30 14 5 -4 8 -2 7 3 -4 13 61 74 71
67 5 -2 11 2 14 10 4 8 15 12 27 10 11 -2 20 0 20 6 0 12 37 12 45 -1z m-1979
-22 c-4 7 -1 12 8 12 9 0 16 -4 16 -10 0 -5 3 -9 8 -7 14 4 65 -50 53 -57 -6
-4 -11 -2 -11 4 0 8 -6 8 -20 0 -11 -6 -20 -7 -20 -2 0 4 -10 9 -22 10 -13 2
-32 4 -43 5 -11 2 -19 8 -17 15 2 10 -3 10 -18 2 -18 -10 -21 -9 -18 7 2 10
14 23 28 30 20 9 28 8 44 -5 11 -10 16 -11 12 -4z m1231 -26 c-10 -2 -17 -8
-17 -13 0 -6 -4 -7 -10 -4 -6 4 -5 13 2 25 10 15 15 17 27 7 12 -10 12 -12 -2
-15z m-791 -25 c8 3 14 0 14 -6 0 -6 3 -10 8 -10 24 4 52 -3 65 -16 8 -8 16
-12 18 -10 8 7 113 -50 117 -64 3 -8 0 -11 -7 -7 -6 4 -11 2 -11 -4 0 -13 -52
-2 -62 14 -4 6 -8 7 -8 3 0 -7 -97 39 -110 53 -3 3 -14 10 -25 16 -11 6 -21
20 -22 30 -2 10 0 14 3 7 3 -7 12 -9 20 -6z m717 -12 c-3 -8 -9 -15 -14 -15
-10 0 -12 24 -3 33 11 11 24 -3 17 -18z m-204 -12 c-7 -7 -18 -12 -26 -9 -8 3
-12 2 -9 -3 8 -12 -35 -29 -64 -24 -14 2 -27 8 -28 13 -2 6 -9 7 -15 3 -7 -3
-8 -2 -4 2 4 5 13 10 20 11 7 2 23 5 35 8 18 4 22 2 18 -10 -3 -9 -1 -12 4 -9
6 3 10 12 10 20 0 8 8 12 20 10 11 -2 20 0 20 5 0 5 7 7 15 4 12 -5 13 -9 4
-21z m127 -28 c1 -8 -1 -15 -5 -15 -14 0 -20 12 -14 26 6 17 16 11 19 -11z
m189 15 c-3 -5 -12 -10 -20 -10 -7 0 -20 -6 -27 -12 -15 -14 -28 -23 -104 -68
-52 -30 -88 -38 -99 -20 -7 12 39 24 60 16 8 -3 15 -1 15 4 0 6 6 10 14 10 8
0 27 13 43 28 22 22 76 50 121 61 2 1 0 -3 -3 -9z m-1786 -29 c11 -7 7 -14
-20 -30 -38 -23 -49 -26 -49 -11 0 6 5 10 12 10 6 0 8 3 5 7 -4 3 1 12 11 19
20 16 23 16 41 5z m1517 -26 c-8 -9 -24 -16 -33 -16 -38 1 -53 5 -53 12 0 8
49 23 68 20 6 -1 12 4 12 11 0 9 3 9 11 1 9 -9 8 -16 -5 -28z m-1171 0 c81 -9
90 -12 87 -26 -2 -9 0 -10 11 -1 10 8 23 9 48 2 19 -6 50 -13 69 -16 19 -3 37
-9 40 -13 3 -3 14 -7 25 -9 23 -4 105 -32 120 -42 6 -3 39 -17 74 -31 69 -26
83 -43 55 -64 -27 -21 -37 -19 -117 20 -39 19 -78 35 -84 35 -7 0 -13 5 -13
10 0 5 -3 9 -7 8 -13 -3 -113 25 -113 33 0 3 -10 5 -22 5 -13 -1 -31 1 -40 6
-9 4 -34 10 -55 13 -95 11 -129 15 -148 19 -11 3 -27 5 -37 5 -17 1 -19 25 -2
40 10 10 45 19 54 15 3 -1 28 -5 55 -9z m1788 -2 c20 -9 37 -20 37 -25 0 -5 5
-6 10 -3 6 3 10 1 10 -4 0 -6 6 -11 14 -11 8 0 17 -7 20 -16 5 -12 -3 -10 -32
7 -20 13 -39 27 -40 31 -2 5 -8 6 -13 2 -5 -3 -9 -1 -9 4 0 20 -45 21 -80 1
l-35 -20 25 24 c30 29 44 30 93 10z m-1077 -28 c38 -22 43 -29 33 -41 -7 -8
-18 -13 -26 -10 -7 3 -13 1 -13 -3 0 -5 -13 -4 -30 2 -16 6 -30 17 -30 25 0 7
-4 11 -8 8 -4 -2 -14 -1 -22 5 -13 7 -13 9 0 9 12 0 13 2 1 9 -21 13 -3 32 25
27 14 -3 46 -17 70 -31z m248 9 c4 -12 2 -12 -15 -4 -16 9 -26 8 -47 -5 -26
-15 -26 -15 2 9 30 25 50 25 60 0z m693 -29 c-9 -8 -20 -15 -25 -15 -6 0 -13
-6 -15 -12 -4 -9 -6 -8 -6 2 -1 8 11 22 27 31 32 19 41 16 19 -6z m-1967 -7
c0 -5 -5 -6 -12 -2 -7 4 -8 3 -4 -5 8 -12 -15 -41 -33 -41 -5 0 -14 -7 -19
-16 -11 -20 -34 -10 -26 11 4 8 10 13 14 10 4 -3 11 2 14 11 4 10 2 13 -7 9
-6 -4 0 5 16 19 25 24 57 26 57 4z m1910 -23 c0 -8 -3 -14 -7 -13 -13 2 -113
-49 -108 -56 3 -3 2 -4 -1 -1 -4 2 -15 0 -25 -6 -11 -6 -19 -6 -19 0 0 5 17
16 38 25 20 9 55 27 77 40 49 30 45 29 45 11z m350 -21 c0 -2 -9 0 -20 6 -11
6 -20 13 -20 16 0 2 9 0 20 -6 11 -6 20 -13 20 -16z m-1987 3 c22 3 27 1 21
-9 -6 -10 -5 -11 8 -1 8 7 17 11 20 8 3 -3 22 -6 42 -7 20 -1 36 -4 36 -8 0
-4 10 -6 23 -6 12 1 27 0 32 -3 6 -3 15 -6 20 -7 39 -7 144 -38 167 -50 15 -8
28 -13 28 -10 0 2 17 -3 38 -11 20 -7 45 -16 55 -20 26 -8 21 -19 -17 -37 -34
-16 -37 -16 -128 19 -101 39 -102 39 -168 55 -24 6 -50 16 -57 22 -9 7 -13 7
-13 -1 0 -7 -4 -9 -10 -6 -5 3 -29 8 -52 11 -24 3 -44 7 -47 9 -2 3 -13 -1
-24 -6 -14 -8 -22 -8 -27 1 -4 6 -10 11 -14 11 -21 -3 -26 2 -24 23 1 14 5 23
8 21 3 -2 12 0 20 5 8 5 19 5 25 1 5 -5 23 -6 38 -4z m-268 -37 c-3 -5 -2 -10
4 -10 17 0 6 -25 -23 -56 -16 -16 -25 -22 -22 -14 6 12 5 12 -6 -1 -15 -18
-38 -14 -38 7 0 9 4 12 10 9 6 -3 7 1 4 9 -4 9 5 25 22 41 26 24 62 35 49 15z
m1040 -10 c-10 -11 -21 -18 -23 -15 -3 3 3 12 14 20 27 20 30 18 9 -5z m1309
-19 c-2 -3 -12 3 -22 13 -16 17 -16 18 5 5 12 -7 20 -15 17 -18z m56 -27 c0
-2 -9 0 -20 6 -11 6 -20 13 -20 16 0 2 9 0 20 -6 11 -6 20 -13 20 -16z m-2106
-10 c17 -1 50 -4 74 -5 23 -1 42 -5 42 -9 0 -3 15 -6 33 -7 36 -1 198 -61 209
-78 25 -35 -29 -33 -104 3 -31 15 -55 25 -52 21 2 -4 -17 0 -44 8 -26 8 -54
16 -62 18 -8 2 -15 4 -15 5 0 2 -58 10 -104 14 -24 2 -47 9 -51 16 -6 9 -9 8
-12 -6 -3 -17 -5 -16 -10 5 -6 20 -4 23 18 18 13 -2 24 0 24 5 0 5 5 6 12 2 6
-4 25 -9 42 -10z m2136 -4 c0 -5 -2 -10 -4 -10 -3 0 -8 5 -11 10 -3 6 -1 10 4
10 6 0 11 -4 11 -10z m-1170 -5 c0 -7 -30 -13 -34 -7 -3 4 4 9 15 9 10 1 19 0
19 -2z m52 -15 c10 0 18 -3 18 -8 0 -4 14 -13 31 -21 16 -7 28 -15 26 -18 -7
-7 -117 50 -117 61 0 6 5 5 12 -2 7 -7 20 -12 30 -12z m358 10 c8 -5 12 -10 8
-10 -5 0 -10 1 -12 3 -2 1 -13 -6 -24 -16 -12 -11 -26 -16 -33 -11 -7 4 -10 3
-5 -4 6 -10 -10 -19 -54 -27 -14 -3 -20 0 -17 8 2 7 12 12 23 12 10 0 25 8 32
17 7 10 17 16 22 13 4 -3 10 2 14 10 6 17 24 19 46 5z m-460 -9 c0 -5 -7 -12
-16 -15 -14 -5 -15 -4 -4 9 14 17 20 19 20 6z m-1185 -33 c5 -21 4 -33 -4 -36
-6 -2 -11 -10 -11 -17 0 -17 -37 -26 -49 -11 -17 21 -16 54 3 75 28 31 53 27
61 -11z m828 1 c-31 -35 -83 -65 -83 -49 0 6 10 14 23 19 13 5 34 21 47 35 35
36 46 32 13 -5z m1632 13 c-3 -3 -11 0 -18 7 -9 10 -8 11 6 5 10 -3 15 -9 12
-12z m-2653 -52 c16 -29 16 -29 -3 -17 -10 6 -19 15 -19 19 0 13 -65 9 -78 -4
-6 -6 -14 -9 -17 -6 -8 7 56 38 80 38 12 0 27 -12 37 -30z m493 15 c35 -2 49
-7 47 -16 -3 -10 0 -10 12 0 23 19 77 -2 98 -39 14 -25 15 -30 3 -30 -8 0 -15
4 -15 8 0 4 -12 9 -27 10 -15 1 -29 6 -32 11 -3 4 -35 11 -69 15 -80 9 -112
21 -112 41 0 12 6 15 23 9 12 -4 45 -8 72 -9z m2018 -55 c15 -7 27 -17 27 -22
0 -5 4 -7 8 -4 5 3 33 -10 63 -29 42 -27 49 -35 32 -35 -13 0 -23 5 -23 11 0
5 -4 7 -10 4 -5 -3 -10 1 -10 9 0 9 -5 16 -11 16 -5 0 -8 -4 -4 -9 3 -6 -15 2
-40 15 -25 14 -45 30 -45 35 0 6 -4 7 -10 4 -5 -3 -10 -1 -10 5 0 6 -4 8 -10
5 -5 -3 -10 -1 -10 4 0 6 -6 11 -14 11 -8 0 -18 5 -21 11 -6 9 21 0 88 -31z
m-1583 26 c0 -3 -13 -14 -30 -26 -17 -12 -30 -16 -30 -10 0 7 9 14 20 17 11 3
20 9 20 14 0 5 5 9 10 9 6 0 10 -2 10 -4z m705 -6 c-3 -6 -24 -19 -46 -30 -29
-13 -37 -15 -29 -4 7 7 19 14 26 14 8 0 14 4 14 9 0 5 8 12 18 14 9 3 18 5 20
6 2 0 0 -4 -3 -9z m-1829 -45 c-43 -42 -60 -47 -25 -8 28 32 41 43 52 43 5 0
-8 -16 -27 -35z m416 5 c6 -37 -14 -59 -37 -40 -16 14 -16 37 0 57 17 21 33
14 37 -17z m288 -3 c8 0 24 -7 34 -16 12 -10 16 -11 12 -3 -7 11 -4 12 11 3
11 -6 23 -7 27 -4 3 3 6 1 6 -6 0 -7 4 -10 9 -6 5 3 12 1 16 -4 3 -6 12 -8 20
-4 9 3 15 -1 15 -11 0 -18 -54 -23 -64 -7 -3 5 -16 7 -28 3 -14 -3 -19 -1 -14
6 5 8 2 10 -9 6 -8 -4 -22 -1 -30 6 -12 10 -15 10 -15 0 0 -9 -3 -10 -13 -1
-8 6 -17 8 -20 4 -4 -3 -7 -1 -7 5 0 7 -7 12 -16 12 -14 0 -14 3 -4 15 8 10
20 13 34 9 12 -4 28 -7 36 -7z m2355 3 c3 -6 -1 -7 -9 -4 -18 7 -21 14 -7 14
6 0 13 -4 16 -10z m50 -30 c3 -5 1 -10 -4 -10 -6 0 -11 5 -11 10 0 6 2 10 4
10 3 0 8 -4 11 -10z"/>
<path d="M2636 4983 c-6 -14 -5 -15 5 -6 7 7 10 15 7 18 -3 3 -9 -2 -12 -12z"/>
<path d="M2615 4930 c-3 -5 -1 -10 4 -10 6 0 11 5 11 10 0 6 -2 10 -4 10 -3 0
-8 -4 -11 -10z"/>
<path d="M3046 4633 c-6 -14 -5 -15 5 -6 7 7 10 15 7 18 -3 3 -9 -2 -12 -12z"/>
<path d="M2900 4530 c-9 -6 -10 -10 -3 -10 6 0 15 5 18 10 8 12 4 12 -15 0z"/>
<path d="M2439 4043 c-13 -16 -12 -17 4 -4 9 7 17 15 17 17 0 8 -8 3 -21 -13z"/>
<path d="M2356 3892 c-3 -5 1 -9 9 -9 8 0 12 4 9 9 -3 4 -7 8 -9 8 -2 0 -6 -4
-9 -8z"/>
<path d="M2450 3489 c0 -5 5 -7 10 -4 6 3 10 8 10 11 0 2 -4 4 -10 4 -5 0 -10
-5 -10 -11z"/>
<path d="M2701 3474 c-58 -48 -29 -140 34 -110 14 6 25 15 25 19 0 5 5 5 12 1
8 -5 9 -2 5 9 -3 10 -3 17 1 17 7 0 9 57 2 70 -1 3 -2 8 -1 13 3 17 -50 5 -78
-19z"/>
<path d="M2406 3452 c-3 -5 1 -9 9 -9 8 0 12 4 9 9 -3 4 -7 8 -9 8 -2 0 -6 -4
-9 -8z"/>
<path d="M2574 3412 c-27 -15 -51 -27 -53 -29 -2 -1 -5 -15 -6 -32 -2 -22 3
-31 16 -34 11 -3 19 0 19 6 0 6 3 8 6 4 4 -3 13 1 21 9 8 8 18 12 23 9 4 -3
11 2 14 11 5 14 9 14 23 3 15 -13 15 -12 3 8 -10 16 -11 25 -3 35 8 9 8 16 -1
24 -10 9 -25 6 -62 -14z"/>
<path d="M2430 3323 c-37 -47 -14 -110 35 -97 24 6 27 13 27 64 0 32 -1 35
-21 47 -17 11 -23 9 -41 -14z"/>
<path d="M2751 3210 c-14 -8 -8 -40 7 -40 5 0 15 6 21 14 15 17 -8 39 -28 26z"/>
<path d="M2673 3203 c-14 -5 -17 -32 -5 -50 6 -10 13 -9 30 2 31 22 10 60 -25
48z"/>
<path d="M2520 3123 c0 -10 5 -25 10 -33 9 -13 12 -12 25 4 11 14 12 23 4 33
-16 19 -39 16 -39 -4z"/>
<path d="M2477 3086 c-6 -16 2 -28 14 -20 12 7 11 34 0 34 -5 0 -11 -6 -14
-14z"/>
<path d="M1595 3299 c-4 -6 -5 -12 -2 -15 2 -3 7 2 10 11 7 17 1 20 -8 4z"/>
<path d="M2866 3032 c-3 -5 1 -9 9 -9 8 0 12 4 9 9 -3 4 -7 8 -9 8 -2 0 -6 -4
-9 -8z"/>
<path d="M1190 2009 c0 -5 5 -7 10 -4 6 3 10 8 10 11 0 2 -4 4 -10 4 -5 0 -10
-5 -10 -11z"/>
<path d="M2315 1730 c-3 -5 -1 -10 4 -10 6 0 11 5 11 10 0 6 -2 10 -4 10 -3 0
-8 -4 -11 -10z"/>
<path d="M2080 1670 c-9 -6 -10 -10 -3 -10 6 0 15 5 18 10 8 12 4 12 -15 0z"/>
<path d="M2150 1670 c0 -5 5 -10 11 -10 5 0 7 5 4 10 -3 6 -8 10 -11 10 -2 0
-4 -4 -4 -10z"/>
<path d="M2265 5349 c-3 -4 2 -6 10 -5 21 3 28 13 10 13 -9 0 -18 -4 -20 -8z"/>
<path d="M3165 5310 c-3 -6 1 -7 9 -4 18 7 21 14 7 14 -6 0 -13 -4 -16 -10z"/>
<path d="M3913 5055 c0 -8 4 -12 9 -9 5 3 6 10 3 15 -9 13 -12 11 -12 -6z"/>
<path d="M3876 5023 c-6 -14 -5 -15 5 -6 7 7 10 15 7 18 -3 3 -9 -2 -12 -12z"/>
<path d="M2093 4915 c0 -8 4 -12 9 -9 5 3 6 10 3 15 -9 13 -12 11 -12 -6z"/>
<path d="M1346 4612 c-2 -4 4 -8 14 -8 10 0 16 4 14 8 -3 4 -9 8 -14 8 -5 0
-11 -4 -14 -8z"/>
<path d="M3575 4459 c-4 -6 -5 -12 -2 -15 2 -3 7 2 10 11 7 17 1 20 -8 4z"/>
<path d="M4713 4455 c0 -8 4 -12 9 -9 5 3 6 10 3 15 -9 13 -12 11 -12 -6z"/>
<path d="M3555 4419 c-4 -6 -5 -12 -2 -15 2 -3 7 2 10 11 7 17 1 20 -8 4z"/>
<path d="M1253 4355 c0 -8 4 -12 9 -9 5 3 6 10 3 15 -9 13 -12 11 -12 -6z"/>
<path d="M4496 4003 c-6 -14 -5 -15 5 -6 7 7 10 15 7 18 -3 3 -9 -2 -12 -12z"/>
<path d="M4436 3823 c-4 -9 -3 -20 1 -24 4 -4 9 3 9 17 2 28 -1 31 -10 7z"/>
<path d="M4185 2290 c-3 -6 1 -7 9 -4 18 7 21 14 7 14 -6 0 -13 -4 -16 -10z"/>
<path d="M4575 1450 c3 -5 8 -10 11 -10 2 0 4 5 4 10 0 6 -5 10 -11 10 -5 0
-7 -4 -4 -10z"/>
<path d="M1436 1197 c3 -10 9 -15 12 -12 3 3 0 11 -7 18 -10 9 -11 8 -5 -6z"/>
<path d="M5416 983 c-6 -14 -5 -15 5 -6 7 7 10 15 7 18 -3 3 -9 -2 -12 -12z"/>
<path d="M4425 806 c-29 -13 -47 -38 -60 -83 -9 -33 7 -28 28 9 10 18 21 28
25 22 4 -5 42 -9 85 -9 64 0 74 -2 60 -12 -9 -7 -14 -13 -11 -13 3 0 -7 -14
-23 -31 -16 -17 -30 -40 -30 -50 -1 -10 -3 -23 -4 -29 -1 -5 -3 -16 -4 -23 0
-8 -13 -14 -31 -14 -39 0 -75 -19 -88 -48 -14 -30 -5 -38 22 -20 42 30 87 12
100 -39 6 -23 4 -27 -8 -23 -9 4 -16 3 -16 -2 0 -5 -11 -12 -24 -15 -22 -5
-35 -26 -42 -63 -3 -20 14 -15 25 6 7 13 18 17 35 14 27 -5 47 -44 27 -51 -6
-2 -9 -7 -7 -11 3 -4 -13 -27 -35 -52 -54 -59 -69 -89 -58 -117 9 -24 16 -26
38 -13 12 8 12 13 -2 34 -15 23 -15 26 14 53 16 15 29 24 29 19 0 -5 5 -4 12
3 16 16 31 15 22 0 -6 -10 -4 -10 7 -2 18 14 82 16 73 3 -3 -6 4 -5 15 3 16 9
24 10 29 2 4 -6 15 -10 25 -8 9 1 24 -4 32 -13 8 -8 15 -11 15 -8 0 4 11 0 24
-8 23 -15 24 -15 30 6 5 18 8 20 16 7 8 -13 10 -12 10 3 0 9 7 17 15 17 8 0
15 4 15 9 0 9 5 11 87 34 31 9 55 11 60 6 10 -10 13 1 16 68 1 23 5 39 9 37 5
-3 8 0 8 5 0 6 -5 11 -11 11 -8 0 -7 6 2 17 8 10 9 14 2 10 -8 -5 -11 -1 -8
12 2 10 -3 30 -10 45 -8 14 -11 26 -7 26 16 0 -53 31 -74 32 -14 2 -20 7 -17
16 3 7 12 11 20 8 8 -3 12 -2 8 3 -3 5 7 19 21 30 15 12 23 21 19 21 -4 0 -2
7 5 15 7 8 15 13 19 10 12 -7 5 59 -10 90 -8 16 -27 37 -44 46 -29 17 -32 17
-100 -7 -38 -13 -76 -21 -83 -19 -7 3 -10 0 -7 -5 3 -6 2 -10 -4 -10 -17 0
-61 -47 -67 -72 -4 -12 -7 -40 -8 -60 0 -21 -5 -38 -9 -38 -5 0 -5 -5 -2 -11
12 -18 6 -168 -7 -192 -21 -36 -50 -67 -59 -61 -5 3 -9 0 -9 -5 0 -6 -5 -11
-10 -11 -6 0 -3 11 6 25 9 14 20 22 25 19 5 -3 6 2 3 11 -4 8 0 23 7 32 8 9 9
14 3 10 -14 -8 -13 85 1 96 7 4 7 10 0 15 -12 8 -13 51 -2 70 5 7 3 12 -4 12
-8 0 -8 4 1 15 7 8 8 15 2 15 -14 0 11 67 38 100 13 16 41 38 62 50 21 12 38
24 38 27 0 3 -19 2 -42 -2 -67 -11 -91 -12 -123 -4 -57 16 -101 17 -130 5z
m393 -42 c14 -4 21 -12 18 -20 -3 -8 0 -11 8 -8 16 6 35 -40 33 -76 -4 -49
-45 -97 -97 -113 -8 -3 -6 37 3 50 4 6 3 14 -3 18 -6 3 -7 11 -4 17 4 6 1 9
-7 6 -10 -3 -14 -20 -13 -56 0 -34 -3 -49 -10 -45 -6 3 -5 0 2 -8 15 -16 16
-33 0 -23 -7 5 -8 3 -2 -7 5 -8 9 -54 9 -102 l1 -88 -27 6 c-15 3 -50 6 -79 7
l-52 0 28 18 c35 21 109 100 94 100 -5 0 -10 5 -10 11 0 5 5 7 11 3 7 -4 7 1
-1 16 -10 18 -10 21 2 14 11 -6 11 -5 -1 9 -10 13 -10 17 -1 17 9 0 10 3 1 13
-8 10 -7 17 1 25 7 7 8 12 2 12 -6 0 -10 10 -9 23 2 13 8 21 16 19 9 -1 8 3
-3 11 -18 14 -26 33 -10 23 5 -3 9 1 9 9 0 8 -4 12 -8 10 -6 -4 -5 18 1 35 1
3 3 10 4 15 2 18 21 41 41 53 24 13 24 13 53 6z m27 -224 c4 -6 10 -8 15 -5 9
5 23 -20 25 -48 2 -14 -3 -17 -16 -14 -13 3 -17 1 -12 -6 4 -7 0 -7 -9 1 -11
8 -18 9 -22 3 -10 -15 -54 8 -52 26 2 15 44 52 58 53 4 0 10 -5 13 -10z m43
-145 c-2 -2 -24 0 -50 4 -30 5 -45 4 -41 -2 3 -5 0 -8 -7 -5 -7 2 -14 16 -14
31 -2 27 0 27 47 24 27 -2 51 2 55 7 4 6 8 -4 10 -22 2 -19 2 -35 0 -37z m-15
-21 c22 -7 24 -64 2 -64 -9 0 -29 -7 -45 -15 -17 -9 -30 -11 -30 -5 0 5 -5 9
-11 8 -14 -3 -18 31 -8 59 7 20 53 29 92 17z"/>
<path d="M4675 371 c-3 -5 -2 -12 3 -15 5 -3 9 1 9 9 0 17 -3 19 -12 6z"/>
<path d="M582 780 c-61 -28 -105 -81 -117 -142 -6 -28 12 -30 19 -3 4 14 11
25 16 25 6 0 10 7 10 16 0 10 6 14 15 10 8 -3 14 0 12 7 -2 13 79 36 105 29
15 -4 14 -7 -9 -26 -101 -78 -145 -204 -112 -315 7 -22 27 -57 45 -77 19 -20
31 -41 27 -47 -3 -6 -1 -7 6 -3 6 4 17 3 24 -2 19 -15 88 -36 127 -38 19 -1
36 -3 38 -4 6 -6 28 -6 37 0 6 4 19 7 30 8 38 2 94 32 132 70 21 21 45 41 53
45 9 3 10 6 3 6 -9 1 -9 11 2 41 16 46 5 53 -20 13 -25 -40 -46 -58 -93 -82
-29 -15 -41 -17 -44 -8 -3 7 -4 95 -4 197 l1 185 29 3 c17 2 26 0 22 -7 -4 -5
-14 -8 -24 -5 -14 5 -15 4 -2 -5 11 -7 19 -6 32 6 9 8 30 16 47 17 16 0 29 3
28 6 -1 3 7 18 18 34 11 16 20 37 22 47 4 24 -23 25 -36 2 -8 -15 -22 -18 -73
-16 -35 1 -72 3 -83 6 -112 25 -235 28 -283 7z m129 -97 c8 -258 -2 -353 -35
-353 -14 0 -56 41 -56 56 0 6 -7 17 -15 24 -9 7 -14 18 -12 24 2 6 0 22 -5 35
-7 19 -5 22 6 18 9 -4 18 -2 21 4 4 5 3 9 -2 8 -27 -5 -33 3 -28 34 9 47 52
137 66 137 7 0 10 3 6 6 -6 7 32 43 46 44 4 0 7 -17 8 -37z m113 6 c-4 -7 1
-7 16 1 19 10 21 9 20 -7 -1 -10 -1 -22 0 -28 6 -29 4 -61 -5 -67 -7 -5 -7 -8
0 -8 6 0 10 -55 9 -148 l0 -147 -50 1 c-72 2 -114 15 -114 35 0 5 6 9 14 9 8
0 16 7 20 15 3 8 10 15 16 15 6 0 8 -5 4 -12 -4 -7 -3 -8 4 -4 6 4 9 13 6 20
-3 8 4 16 16 19 13 3 19 10 15 17 -4 6 -2 16 4 23 6 8 6 18 1 27 -5 9 -5 19 2
27 7 9 7 17 0 26 -7 8 -7 18 -2 27 6 9 4 20 -3 29 -10 12 -9 14 7 8 16 -6 17
-5 6 8 -10 12 -10 15 1 15 9 1 8 4 -4 11 -14 8 -15 14 -7 24 8 9 8 20 2 32
-12 23 -5 43 14 43 9 0 12 -5 8 -11z"/>
<path d="M2071 782 c-43 -23 -50 -40 -17 -38 13 0 22 5 19 9 -5 8 26 4 65 -8
25 -8 27 -15 10 -35 -11 -12 -10 -12 5 -1 9 7 17 12 18 10 0 -2 2 -23 4 -46 4
-41 4 -41 -61 -82 -36 -23 -69 -41 -75 -41 -5 0 -9 -9 -9 -19 0 -12 10 -21 27
-26 15 -3 30 -10 33 -13 3 -4 14 -12 25 -18 25 -14 51 -59 59 -102 5 -31 4
-33 -48 -56 -45 -20 -152 -104 -136 -107 33 -5 49 -4 47 5 -1 6 8 11 20 10 12
0 20 3 17 7 -7 12 60 28 67 16 4 -5 9 -3 12 4 12 30 25 -15 24 -83 -2 -71 -1
-73 46 -68 10 1 26 -4 35 -12 13 -11 14 -11 8 1 -7 11 -1 13 28 9 l37 -4 -3
63 c-2 38 0 63 7 63 5 0 3 5 -5 10 -8 5 -13 10 -10 11 53 10 59 9 54 -8 -5
-14 -4 -15 4 -4 9 12 17 12 59 -1 30 -10 52 -12 60 -6 7 6 13 4 16 -4 3 -7 6
-3 6 9 1 24 48 66 64 56 5 -3 7 -1 4 4 -8 13 27 46 38 36 4 -5 5 -2 1 5 -4 7
-10 10 -14 8 -4 -2 -6 57 -6 132 1 100 5 136 14 134 6 -1 9 2 5 8 -3 6 -11 8
-17 4 -5 -3 -8 2 -6 12 3 23 -37 91 -63 105 -11 5 -16 15 -13 21 4 6 3 8 -3 5
-5 -3 -26 5 -46 19 -41 27 -50 25 -114 -23 l-33 -24 -1 28 c-1 15 -1 31 0 36
0 4 -3 7 -9 7 -9 0 -15 -22 -11 -44 3 -18 -10 -42 -30 -54 -20 -13 -21 -12
-16 7 3 15 -5 30 -29 54 -28 27 -43 34 -82 35 -30 2 -59 -4 -81 -16z m346 -63
c52 -29 64 -40 56 -52 -3 -5 -1 -7 4 -4 13 8 32 -14 38 -42 2 -12 6 -25 9 -30
3 -5 -1 -14 -9 -21 -8 -7 -15 -9 -15 -5 0 4 -6 3 -13 -3 -21 -18 -70 -20 -115
-4 l-43 14 2 67 c1 54 5 69 23 83 26 21 18 22 63 -3z m-109 -79 c1 -27 -4 -52
-9 -56 -6 -3 -6 -10 -1 -17 12 -16 13 -295 1 -303 -6 -3 -6 -10 -1 -17 5 -7 9
-37 8 -67 -1 -47 -4 -55 -22 -58 -17 -2 -20 3 -22 38 -2 30 0 40 9 34 8 -5 9
-3 4 7 -13 20 -15 320 -2 312 6 -4 7 -1 2 8 -13 20 -14 72 -1 88 8 11 8 13 -1
8 -11 -7 -12 9 -4 55 0 3 9 9 19 11 9 3 18 5 19 6 0 0 1 -21 1 -49z m-132 -89
l0 -49 -38 25 c-21 14 -38 27 -38 28 0 4 64 45 70 45 3 0 6 -22 6 -49z m174
-12 c0 -5 5 -7 10 -4 6 3 16 3 23 -2 17 -11 66 -12 73 -2 2 4 11 6 19 2 8 -3
15 -1 15 5 0 6 8 9 18 8 13 -2 17 -13 18 -47 0 -24 -1 -47 -3 -50 -1 -4 -21 0
-43 7 -35 12 -54 12 -113 1 -7 -1 -15 -6 -19 -12 -11 -14 -25 10 -22 38 1 12
3 32 3 45 1 21 21 33 21 11z m152 -113 c17 -12 22 -26 23 -73 2 -66 -1 -77
-18 -66 -7 4 -14 8 -17 9 -3 0 -29 8 -59 17 -30 9 -66 17 -79 17 -17 0 -22 4
-19 14 3 8 2 16 -2 18 -4 2 -4 18 1 37 5 18 11 31 14 28 3 -3 17 1 31 8 31 16
95 12 125 -9z"/>
<path d="M2275 650 c3 -5 8 -10 11 -10 2 0 4 5 4 10 0 6 -5 10 -11 10 -5 0 -7
-4 -4 -10z"/>
<path d="M2270 490 c0 -5 5 -10 11 -10 5 0 7 5 4 10 -3 6 -8 10 -11 10 -2 0
-4 -4 -4 -10z"/>
<path d="M2270 170 c0 -5 5 -10 11 -10 5 0 7 5 4 10 -3 6 -8 10 -11 10 -2 0
-4 -4 -4 -10z"/>
<path d="M1189 758 c-23 -18 -27 -18 -57 -2 -41 20 -51 13 -21 -15 22 -20 22
-26 22 -233 0 -151 -3 -213 -11 -216 -20 -6 -14 -27 14 -51 26 -22 79 -37 68
-19 -3 5 6 18 20 29 23 18 24 22 11 36 -8 8 -13 19 -10 24 4 5 3 9 -2 9 -9 0
-9 107 0 117 4 3 3 11 -3 18 -10 12 7 92 17 81 4 -3 12 3 20 14 17 24 27 25
46 6 18 -18 21 -297 3 -336 -14 -31 -54 -70 -72 -70 -8 0 -14 -4 -14 -9 0 -5
-11 -12 -25 -15 -14 -4 -25 -10 -25 -15 0 -27 152 52 210 108 14 14 16 18 6
10 -18 -13 -18 -13 -6 8 8 12 17 20 21 17 4 -2 5 12 3 31 -2 23 1 33 7 29 8
-4 8 0 2 12 -13 27 -9 80 6 76 7 -1 10 2 6 8 -3 6 -10 8 -13 6 -4 -2 -7 31 -7
75 1 43 -3 79 -7 79 -4 0 -8 5 -8 12 0 6 -10 22 -21 34 -21 22 -22 22 -48 6
-14 -9 -35 -25 -46 -35 -10 -9 -25 -15 -33 -12 -7 2 -10 1 -7 -4 3 -5 1 -12
-4 -15 -13 -8 -20 31 -8 43 8 8 7 11 -2 11 -10 0 -11 3 -2 14 9 11 9 15 0 18
-8 3 -9 9 -4 19 5 8 8 26 6 40 -1 18 6 35 24 53 l26 26 -29 -2 c-16 -1 -40
-10 -53 -20z"/>
<path d="M2808 773 c-10 -3 -21 -17 -24 -31 -3 -15 -8 -36 -11 -47 -5 -19 -5
-19 13 -3 26 23 56 76 47 81 -5 2 -16 2 -25 0z"/>
<path d="M3635 660 c-54 -66 -61 -85 -32 -85 9 0 12 -39 12 -138 0 -110 -3
-140 -15 -147 -13 -8 -8 -24 8 -25 11 -1 56 -27 70 -42 11 -10 18 -11 28 -2 7
6 19 7 25 3 7 -4 9 -3 6 3 -8 13 17 36 28 25 5 -4 5 -1 1 5 -4 7 -2 13 3 13 6
0 11 5 11 11 0 7 -9 9 -22 6 -31 -9 -63 20 -45 41 6 9 7 13 2 10 -7 -5 -11 22
-12 77 0 52 4 82 9 79 6 -4 7 1 1 12 -9 17 -9 25 -5 61 1 7 13 9 31 7 23 -4
32 0 41 16 12 23 6 27 -45 32 -29 3 -30 4 -30 56 0 28 -2 52 -6 52 -4 0 -33
-32 -64 -70z"/>
<path d="M1230 710 c0 -5 5 -10 11 -10 5 0 7 5 4 10 -3 6 -8 10 -11 10 -2 0
-4 -4 -4 -10z"/>
<path d="M573 695 c0 -8 4 -12 9 -9 5 3 6 10 3 15 -9 13 -12 11 -12 -6z"/>
<path d="M1574 609 c-32 -16 -64 -29 -70 -29 -17 0 -21 -18 -19 -92 1 -46 -2
-65 -9 -61 -8 5 -8 3 0 -8 14 -18 10 -132 -5 -137 -16 -5 -13 -22 4 -22 8 0
15 -5 15 -11 0 -5 4 -7 10 -4 5 3 24 0 42 -8 50 -23 72 -25 86 -10 7 7 18 10
24 7 6 -4 8 -3 5 3 -4 6 6 19 21 29 42 27 57 44 39 44 -8 0 -20 -7 -27 -15 -7
-8 -16 -12 -21 -9 -5 3 -9 1 -9 -5 0 -12 -30 -3 -45 13 -5 6 -17 11 -25 11 -9
0 -17 14 -21 38 -3 20 -3 37 1 37 13 0 30 -27 22 -35 -4 -5 -1 -5 6 -1 11 6
10 12 -4 27 -9 11 -15 21 -13 22 22 17 86 51 92 49 5 -1 6 2 3 7 -8 12 20 22
42 14 15 -6 15 -5 3 10 -12 15 -11 17 3 17 23 0 20 25 -8 53 -14 14 -24 26
-23 28 2 2 -11 18 -28 35 l-31 31 -60 -28z m16 -40 c0 -5 18 -27 40 -48 l41
-39 -45 -31 c-24 -17 -47 -31 -49 -31 -3 0 -7 18 -9 40 -2 22 -1 40 2 40 3 0
3 21 1 46 -2 32 0 44 8 40 6 -4 11 -11 11 -17z"/>
<path d="M2728 611 c-31 -23 -35 -30 -25 -46 7 -11 13 -42 14 -70 2 -27 3 -54
4 -60 1 -5 0 -32 -1 -60 -3 -67 9 -128 26 -138 8 -5 12 -12 10 -16 -3 -4 1 -8
9 -8 8 0 15 4 15 8 0 5 7 5 17 2 9 -4 14 -2 11 3 -7 10 17 36 25 28 3 -3 8 4
12 16 5 15 1 27 -11 39 -17 15 -17 15 -5 -1 9 -12 9 -18 1 -23 -18 -11 -23 1
-25 60 -2 49 -1 54 14 43 14 -12 15 -11 2 5 -17 22 -22 77 -7 77 7 0 8 3 1 8
-16 11 -18 52 -3 52 10 0 10 2 -1 9 -11 7 -10 11 6 22 16 9 18 15 9 23 -7 6
-23 21 -36 33 l-25 22 -37 -28z"/>
<path d="M3350 625 c-7 -8 -30 -18 -51 -21 -22 -4 -39 -9 -39 -13 0 -3 10 -29
21 -57 22 -51 22 -52 2 -73 -10 -11 -28 -37 -39 -58 -18 -35 -20 -50 -15 -108
2 -27 47 -78 71 -80 10 -1 16 3 13 8 -4 6 0 8 9 4 10 -3 15 0 14 11 0 9 4 16
11 15 7 -2 17 6 23 17 6 11 16 17 22 14 7 -4 8 -3 4 4 -4 7 -3 12 3 12 6 0 13
-11 17 -24 6 -27 37 -59 59 -62 8 -1 13 1 12 4 -1 4 13 21 31 38 30 29 31 32
15 45 -9 8 -14 9 -10 2 4 -6 3 -14 -2 -17 -5 -4 -13 4 -17 16 -11 33 -12 58
-2 58 4 0 8 5 8 11 0 5 -4 8 -8 5 -10 -6 -8 76 3 94 5 7 4 11 -1 8 -5 -4 -10
9 -10 28 -1 19 2 34 6 34 4 0 7 10 6 23 0 12 4 21 10 20 7 -1 10 6 7 17 -4 16
-9 18 -24 10 -20 -11 -105 5 -115 21 -8 13 -20 11 -34 -6z m-7 -64 c20 -10 34
-14 31 -9 -3 5 3 4 15 -4 16 -10 21 -23 21 -55 0 -24 -3 -43 -7 -43 -25 2 -79
39 -93 65 -39 71 -32 79 33 46z m44 -121 c2 0 1 -4 -2 -10 -3 -6 1 -7 9 -4 13
5 16 -3 16 -47 0 -49 -3 -56 -32 -76 -30 -21 -33 -22 -42 -5 -5 9 -16 23 -23
31 -8 7 -11 22 -7 33 4 13 2 18 -4 14 -11 -6 -10 3 4 66 5 27 6 28 41 13 19
-8 37 -15 40 -15z"/>
<path d="M3913 605 c-35 -17 -66 -34 -69 -37 -3 -4 -7 -66 -8 -140 -1 -73 -6
-141 -10 -150 -6 -13 -4 -18 8 -18 9 0 16 -5 16 -12 0 -6 3 -9 6 -5 8 8 65
-13 59 -23 -3 -4 4 -6 15 -3 13 3 20 0 20 -8 0 -11 2 -11 9 0 8 13 12 13 28 1
15 -12 16 -12 5 0 -10 12 -7 18 14 37 15 12 31 20 37 16 5 -3 7 -1 3 5 -3 6 3
13 14 17 11 3 20 11 20 17 0 5 -3 8 -7 6 -5 -2 -20 -10 -35 -17 -24 -12 -34
-12 -68 -1 -23 8 -44 18 -47 23 -4 6 0 7 8 2 11 -6 11 -5 2 5 -9 10 -8 19 4
39 14 24 14 25 -1 7 -13 -16 -16 -17 -16 -4 0 8 7 21 15 28 8 7 15 10 15 7 0
-3 11 4 24 16 34 31 46 40 84 62 36 22 40 36 15 66 -27 32 -92 99 -95 97 -2 0
-31 -15 -65 -33z m33 -39 c8 -8 13 -21 12 -28 -3 -11 1 -13 34 -17 6 0 9 -4 5
-7 -3 -4 1 -13 9 -22 14 -14 14 -16 -3 -25 -10 -6 -24 -17 -31 -24 -8 -7 -18
-11 -23 -8 -5 4 -9 1 -9 -4 0 -6 -4 -11 -9 -11 -12 0 -9 63 4 72 7 5 6 8 -2 8
-7 0 -11 15 -10 40 2 45 3 46 23 26z"/>
<path d="M3936 463 c-6 -14 -5 -15 5 -6 7 7 10 15 7 18 -3 3 -9 -2 -12 -12z"/>
<path d="M5140 618 c-19 -10 -45 -18 -57 -18 -28 0 -28 -4 1 -60 l23 -45 -36
-52 c-37 -55 -42 -70 -43 -118 -1 -41 3 -54 31 -82 22 -23 68 -42 56 -23 -10
16 30 31 45 17 12 -10 12 -9 2 4 -10 13 -7 20 14 38 26 22 49 20 40 -5 -3 -8
-1 -14 4 -14 6 0 10 -6 10 -13 0 -8 10 -18 21 -24 17 -7 27 -5 43 12 12 12 30
26 40 32 11 6 16 15 12 22 -6 9 -11 9 -21 1 -16 -13 -23 -3 -20 28 1 12 -2 22
-6 22 -4 0 -3 16 1 35 4 19 5 35 1 35 -8 0 -6 53 3 68 4 7 3 12 -2 12 -6 0 -7
14 -2 35 4 19 6 35 4 35 -3 0 2 10 11 23 18 28 10 40 -15 25 -14 -9 -30 -7
-72 8 -51 18 -54 19 -88 2z m-2 -48 c7 0 10 -4 7 -10 -3 -5 0 -7 9 -4 26 10
54 -14 58 -51 6 -51 -3 -59 -45 -39 -25 12 -44 32 -62 67 l-25 49 22 -6 c13
-3 29 -6 36 -6z m73 -159 c5 -49 -4 -85 -24 -102 -29 -25 -37 -24 -64 7 -18
22 -22 36 -19 79 2 29 7 58 10 64 9 14 96 -28 97 -48z"/>
<path d="M5410 598 c-35 -31 -40 -39 -22 -35 35 8 41 -16 39 -162 -1 -128 -2
-134 -26 -160 -61 -65 -21 -145 69 -140 49 3 90 26 83 46 -8 19 -31 16 -43 -6
-12 -24 -46 -30 -80 -17 -31 13 -40 25 -40 53 0 26 43 59 61 47 7 -4 9 -3 5 4
-3 6 7 16 24 24 16 7 30 16 30 19 0 3 22 20 48 37 27 17 61 43 76 58 33 33 76
120 65 131 -4 4 -9 25 -11 45 -1 20 -6 34 -10 32 -4 -3 -8 2 -8 10 0 9 -4 16
-10 16 -5 0 -10 7 -10 15 0 24 -32 17 -69 -15 -19 -16 -39 -26 -44 -23 -6 3
-7 1 -4 -4 4 -6 0 -13 -8 -17 -10 -3 -15 1 -15 12 -1 18 -15 39 -40 59 -12 9
-24 4 -60 -29z m182 -80 c-1 -5 3 -8 9 -8 17 0 7 -91 -14 -127 -10 -18 -23
-33 -29 -33 -5 0 -7 -4 -4 -9 3 -4 -5 -13 -18 -19 -23 -10 -23 -9 -23 39 0 29
4 49 11 49 8 0 8 2 0 8 -14 9 -14 74 1 84 6 5 5 8 -4 8 -9 0 -4 11 15 29 l29
29 15 -22 c8 -11 14 -24 12 -28z"/>
<path d="M2940 593 c-34 -33 -34 -35 -10 -31 14 2 25 -1 25 -7 0 -5 3 -14 6
-20 11 -20 2 -224 -10 -239 -15 -17 -7 -36 15 -36 8 0 26 -11 40 -25 26 -27
44 -32 44 -14 0 6 7 8 16 5 8 -3 13 -2 10 3 -3 5 1 14 9 21 12 10 19 10 33 -1
14 -11 15 -11 5 1 -10 11 -10 17 3 31 10 11 12 19 5 24 -6 3 -11 1 -11 -5 0
-7 -7 -9 -16 -6 -8 3 -12 2 -9 -4 9 -14 -7 -12 -28 5 -16 11 -18 25 -15 79 2
39 -1 66 -7 67 -5 0 -1 4 10 9 14 6 15 9 5 9 -20 1 -14 78 7 99 12 13 17 12
33 -6 10 -11 17 -22 15 -24 -2 -2 7 -8 20 -14 20 -10 22 -9 17 4 -3 10 -1 13
6 8 7 -4 12 -1 12 8 0 9 5 16 10 16 6 0 10 12 10 26 0 14 -4 23 -10 19 -6 -3
-13 1 -16 9 -11 29 -41 28 -75 -4 l-33 -30 -26 30 c-32 38 -47 37 -90 -7z"/>
<path d="M3505 510 c-3 -6 1 -7 9 -4 18 7 21 14 7 14 -6 0 -13 -4 -16 -10z"/>
<path d="M3710 449 c0 -5 5 -7 10 -4 6 3 10 8 10 11 0 2 -4 4 -10 4 -5 0 -10
-5 -10 -11z"/>
<path d="M4990 349 c0 -5 5 -7 10 -4 6 3 10 8 10 11 0 2 -4 4 -10 4 -5 0 -10
-5 -10 -11z"/>
<path d="M5495 239 c-4 -6 -5 -12 -2 -15 2 -3 7 2 10 11 7 17 1 20 -8 4z"/>
<path d="M3506 212 c-3 -5 1 -9 9 -9 8 0 12 4 9 9 -3 4 -7 8 -9 8 -2 0 -6 -4
-9 -8z"/>
</g>
</svg>
